<?xml version="1.0" standalone="no"?>
<!DOCTYPE svg PUBLIC "-//W3C//DTD SVG 20010904//EN"
 "http://www.w3.org/TR/2001/REC-SVG-20010904/DTD/svg10.dtd">
<svg version="1.0" xmlns="http://www.w3.org/2000/svg"
 width="1080.000000pt" height="1080.000000pt" viewBox="0 0 1080.000000 1080.000000"
 preserveAspectRatio="xMidYMid meet">
<metadata>
Created by potrace 1.11, written by Peter Selinger 2001-2013
</metadata>
<g transform="translate(0.000000,1080.000000) scale(0.100000,-0.100000)"
fill="#000000" stroke="none">
<path d="M4610 10127 c-3 -3 -30 -7 -60 -11 -30 -4 -68 -9 -85 -12 -16 -4 -42
-7 -57 -8 -14 0 -24 -5 -21 -10 3 -5 -6 -7 -20 -4 -15 3 -24 2 -22 -3 5 -7
-52 -25 -68 -21 -5 2 -6 -2 -2 -8 3 -5 -3 -10 -14 -10 -12 0 -21 -5 -21 -11 0
-5 -4 -8 -9 -4 -5 3 -17 -2 -25 -11 -9 -8 -16 -12 -16 -8 0 3 -7 1 -15 -6 -8
-7 -15 -9 -15 -4 0 4 -6 0 -12 -9 -7 -9 -20 -17 -28 -19 -8 -2 -21 -11 -28
-21 -7 -9 -18 -15 -23 -12 -5 4 -9 1 -9 -5 0 -6 -4 -8 -10 -5 -5 3 -10 -1 -10
-9 0 -9 -4 -15 -8 -14 -8 3 -38 -22 -104 -84 -15 -14 -28 -25 -28 -22 0 2 -9
-5 -20 -16 -11 -11 -20 -23 -20 -26 0 -12 -28 -33 -35 -26 -4 4 -6 2 -5 -3 5
-23 -1 -35 -17 -35 -9 0 -13 -3 -10 -7 4 -4 -4 -19 -19 -34 -14 -15 -27 -31
-27 -36 -1 -4 -6 -7 -10 -5 -5 1 -6 -2 -3 -7 4 -5 -2 -17 -11 -27 -10 -10 -18
-20 -18 -23 0 -3 -4 -5 -9 -3 -5 2 -6 -5 -2 -14 4 -12 2 -15 -9 -11 -8 4 -17
2 -20 -4 -4 -5 -1 -8 7 -7 18 4 13 -15 -17 -61 -13 -21 -21 -42 -18 -45 4 -3
1 -6 -5 -6 -7 0 -11 -3 -11 -7 4 -25 -2 -35 -18 -29 -10 4 -14 4 -10 0 4 -4 1
-14 -6 -23 -11 -14 -10 -15 7 -1 18 14 18 13 11 -10 -4 -14 -15 -31 -24 -38
-9 -8 -10 -11 -3 -7 6 3 12 1 12 -4 0 -6 -4 -11 -10 -11 -5 0 -10 -9 -10 -19
0 -26 -11 -52 -19 -47 -4 3 -5 -11 -3 -31 4 -32 2 -34 -16 -29 -11 4 -23 3
-26 -2 -3 -6 2 -9 12 -8 11 1 16 -6 15 -19 -3 -48 -12 -70 -24 -67 -9 1 -8 -2
3 -11 15 -12 15 -14 0 -25 -9 -7 -11 -10 -3 -6 10 5 11 1 6 -17 -4 -13 -13
-30 -19 -38 -8 -11 -8 -13 2 -7 7 4 12 1 12 -9 0 -9 -4 -13 -10 -10 -5 3 -10
1 -10 -4 0 -6 4 -11 8 -11 9 0 9 -121 0 -136 -4 -5 -3 -16 2 -24 5 -9 5 -19
-2 -27 -7 -9 -7 -13 1 -13 6 0 11 -5 11 -11 0 -5 -5 -7 -11 -3 -8 5 -8 1 0
-14 16 -30 13 -37 -7 -19 -15 14 -19 15 -19 2 0 -8 4 -12 8 -9 20 12 33 -44
16 -65 -9 -12 -9 -13 1 -7 6 4 13 2 13 -3 5 -39 7 -51 9 -53 1 -2 3 -12 5 -23
1 -11 9 -50 18 -87 10 -49 11 -70 3 -78 -8 -8 -6 -9 7 -5 13 6 17 2 17 -18 0
-14 5 -29 11 -32 6 -5 4 -12 -8 -21 -14 -10 -14 -13 -4 -14 11 0 9 -4 -5 -15
-18 -14 -18 -14 4 -8 17 4 22 1 22 -14 0 -10 5 -24 11 -30 9 -9 16 -29 18 -56
1 -5 6 -5 12 -1 7 4 7 -1 -1 -16 -7 -13 -8 -20 -1 -16 11 7 35 -30 27 -43 -3
-5 7 -19 23 -32 16 -13 27 -27 25 -31 -3 -5 2 -15 10 -24 9 -9 13 -20 10 -26
-5 -7 -2 -8 5 -4 8 5 14 0 18 -13 3 -11 10 -18 16 -14 6 3 7 1 3 -5 -3 -6 1
-15 10 -20 12 -6 15 -17 11 -32 -4 -17 -3 -20 6 -11 16 16 27 14 20 -6 -4 -9
-2 -14 3 -11 11 7 35 -17 27 -26 -4 -3 -1 -6 6 -6 7 0 9 -4 6 -10 -3 -5 1 -10
10 -10 9 0 13 -4 10 -10 -3 -5 1 -10 9 -10 18 0 21 -11 6 -26 -7 -7 -6 -11 4
-11 8 0 13 4 10 9 -8 12 9 9 28 -6 10 -7 15 -16 12 -19 -4 -3 5 -12 20 -18 14
-7 26 -19 26 -26 0 -8 4 -12 9 -9 11 7 57 -33 53 -47 -2 -6 5 -4 14 4 10 8 15
9 11 2 -4 -7 1 -14 13 -18 23 -7 25 -15 8 -35 -11 -12 -10 -12 2 -3 18 13 50
13 50 0 0 -5 7 -6 16 -3 8 3 13 2 9 -3 -3 -5 8 -12 25 -16 16 -4 30 -11 30
-16 0 -6 5 -7 10 -4 6 3 10 1 10 -4 0 -6 9 -11 20 -11 11 0 20 -5 20 -11 0 -5
4 -8 9 -5 5 3 14 -1 21 -9 8 -9 21 -13 35 -9 13 3 26 1 29 -5 4 -5 14 -7 23
-4 12 5 15 2 10 -10 -3 -9 -1 -19 5 -23 6 -4 8 -3 4 4 -9 15 14 20 48 11 16
-5 33 -6 37 -3 5 3 9 0 9 -7 0 -7 3 -9 7 -6 3 4 16 -1 27 -10 20 -17 20 -17 7
0 -13 17 -12 18 15 12 16 -4 35 -8 42 -11 6 -2 12 1 12 7 0 6 5 7 12 3 7 -4
34 -6 61 -5 27 1 55 -3 63 -10 12 -10 13 -9 8 6 -6 14 -3 16 14 11 12 -4 30
-2 41 3 14 8 21 8 24 -2 4 -9 8 -9 15 2 6 8 19 12 30 9 12 -3 23 0 25 7 3 6
19 11 36 10 17 -1 31 2 31 8 0 5 6 7 14 4 8 -3 17 1 20 10 5 11 10 12 19 5 8
-7 17 -6 29 2 10 7 16 15 13 17 -4 5 18 9 57 12 9 1 16 6 15 12 -1 5 4 9 11 7
6 -1 12 3 12 9 0 5 5 7 10 4 6 -3 10 -1 10 5 0 6 5 8 10 5 6 -3 10 -2 10 4 0
5 20 20 45 32 25 12 45 26 45 31 0 4 5 8 11 8 7 0 21 10 33 23 11 12 24 22 28
22 10 0 108 95 108 106 0 5 7 9 15 9 8 0 15 4 15 9 0 4 12 20 26 35 15 14 24
26 21 26 -3 0 4 11 16 24 27 29 57 73 58 83 0 5 7 12 15 16 8 5 12 12 9 18 -4
5 -2 9 2 9 5 0 24 30 43 68 19 37 39 70 45 74 5 4 6 8 1 8 -5 0 -3 7 4 15 7 8
9 15 5 15 -4 0 -2 7 5 15 7 8 9 15 4 15 -5 0 -4 4 1 8 19 13 35 74 24 88 -6 7
-6 15 -1 18 9 5 38 124 34 139 -1 4 1 7 5 7 5 0 8 10 9 23 1 12 5 51 10 87 10
77 10 338 0 395 -3 22 -9 54 -11 70 -4 28 -12 65 -19 90 -2 6 -6 24 -11 40
-43 167 -127 342 -235 489 -51 70 -190 206 -257 252 -32 21 -59 42 -61 47 -2
4 -12 7 -23 7 -10 0 -19 4 -19 8 0 11 -175 92 -198 92 -10 0 -22 4 -27 9 -6 6
-26 12 -45 14 -20 2 -41 6 -47 10 -7 4 -28 8 -48 9 -20 1 -38 6 -42 11 -3 5
-9 3 -14 -4 -5 -8 -9 -9 -9 -4 0 11 -170 21 -180 12z"/>
<path d="M3755 9680 c3 -5 8 -10 11 -10 2 0 4 5 4 10 0 6 -5 10 -11 10 -5 0
-7 -4 -4 -10z"/>
<path d="M7091 9481 c-1 -7 -7 -11 -16 -8 -8 4 -17 2 -20 -3 -3 -4 -16 -7 -30
-5 -14 1 -28 -2 -31 -7 -3 -4 -10 -6 -15 -3 -5 4 -9 2 -9 -3 0 -5 -13 -8 -30
-7 -16 1 -27 -1 -24 -6 5 -8 -17 -14 -38 -10 -5 0 -8 -3 -8 -9 0 -5 -9 -10
-19 -10 -11 0 -22 -4 -26 -10 -3 -5 -13 -6 -22 -3 -10 4 -14 2 -10 -4 7 -11
-27 -26 -50 -24 -7 1 -13 -2 -13 -8 0 -13 -60 -42 -71 -35 -5 3 -8 0 -7 -8 2
-8 -6 -13 -18 -12 -14 0 -20 -4 -17 -13 3 -7 0 -13 -6 -13 -6 0 -19 -8 -29
-17 -37 -35 -117 -98 -121 -95 -2 2 -9 -7 -15 -19 -6 -12 -15 -20 -20 -18 -5
2 -13 -6 -17 -19 -5 -14 -13 -20 -20 -16 -7 4 -9 3 -6 -3 10 -16 -29 -56 -45
-47 -10 6 -11 5 -1 -8 13 -15 8 -28 -9 -28 -5 0 -6 5 -2 12 4 7 3 8 -4 4 -6
-4 -9 -12 -6 -19 2 -7 -4 -24 -16 -37 -11 -13 -20 -30 -20 -38 0 -9 -3 -12 -6
-9 -4 4 -16 -13 -27 -36 -11 -23 -30 -53 -41 -66 -12 -13 -15 -21 -9 -17 9 5
11 2 7 -8 -3 -9 -10 -13 -16 -10 -5 3 -8 0 -7 -7 1 -8 -3 -27 -9 -42 -7 -16
-12 -33 -12 -38 0 -8 -23 -14 -43 -10 -5 1 -6 -3 -2 -8 3 -6 13 -7 23 -4 15 6
15 5 3 -10 -7 -9 -10 -17 -6 -17 4 0 2 -6 -4 -13 -6 -8 -8 -17 -4 -20 3 -4 2
-7 -3 -7 -9 0 -13 -15 -16 -58 -1 -7 -8 -10 -17 -7 -12 5 -13 3 -5 -5 14 -14
7 -50 -10 -50 -6 0 -4 -5 4 -10 8 -5 10 -10 4 -10 -7 0 -10 -13 -9 -31 2 -20
-1 -29 -10 -26 -6 3 -12 -1 -12 -9 0 -7 4 -11 9 -8 10 6 10 -7 0 -22 -4 -6
-15 -10 -25 -8 -9 1 -15 -2 -11 -7 3 -5 9 -7 13 -5 4 3 13 1 21 -5 8 -5 10 -9
5 -9 -6 0 -10 -19 -9 -45 2 -42 0 -45 -20 -40 -18 5 -19 5 -3 -5 12 -8 17 -24
17 -61 0 -28 -4 -48 -9 -44 -5 3 -13 0 -17 -6 -4 -8 -3 -9 5 -5 6 4 13 1 15
-6 7 -23 15 -73 10 -60 -11 24 -26 12 -19 -15 3 -15 8 -43 11 -61 2 -19 7 -39
11 -45 3 -6 1 -7 -5 -3 -7 4 -12 2 -12 -3 0 -6 5 -11 11 -11 6 0 8 -9 4 -20
-4 -12 -2 -20 6 -20 8 0 8 -5 -2 -17 -8 -9 -9 -14 -3 -10 7 4 14 -2 17 -13 3
-13 1 -18 -6 -14 -7 3 -3 -2 7 -10 14 -11 15 -16 6 -16 -9 0 -7 -5 6 -15 19
-15 19 -15 -1 -9 -18 5 -19 5 -3 -8 15 -13 15 -17 3 -29 -10 -10 -11 -18 -4
-29 8 -12 9 -12 7 4 -2 10 3 21 11 24 10 3 13 -2 9 -22 -3 -15 0 -30 7 -34 21
-12 23 -36 6 -57 -15 -18 -15 -19 2 -6 9 8 18 12 20 10 21 -37 27 -51 27 -64
0 -9 5 -13 10 -10 6 3 10 -1 10 -10 0 -9 -4 -14 -9 -10 -5 3 -12 1 -15 -4 -3
-4 4 -8 17 -7 16 1 23 -5 25 -22 2 -12 8 -20 13 -17 5 4 9 -1 9 -9 0 -9 5 -16
11 -16 5 0 7 -4 4 -10 -3 -5 -1 -10 6 -10 7 0 9 -3 6 -6 -3 -4 5 -15 18 -26
27 -21 24 -44 -3 -33 -9 3 -13 2 -8 -2 4 -4 17 -8 29 -8 13 0 26 -10 34 -25 7
-14 13 -21 13 -16 0 5 7 3 15 -4 8 -7 15 -9 15 -5 0 5 9 0 20 -10 21 -19 28
-41 8 -29 -7 4 -8 3 -4 -4 4 -6 13 -9 21 -5 8 3 15 -1 15 -8 0 -7 3 -10 6 -6
3 3 20 -9 37 -26 17 -18 33 -30 35 -28 4 4 32 -13 56 -34 6 -5 18 -11 26 -13
8 -2 18 -8 21 -14 3 -5 10 -9 15 -9 5 1 17 -6 27 -14 9 -8 17 -10 17 -4 0 5 5
7 10 4 6 -4 8 -11 5 -16 -3 -5 1 -6 9 -3 9 3 16 1 16 -6 0 -6 5 -8 10 -5 6 4
22 -1 37 -10 17 -12 23 -13 17 -4 -6 12 -5 12 9 0 9 -7 17 -11 17 -7 0 3 12 1
26 -5 27 -10 81 -20 119 -23 11 -1 26 -5 33 -9 7 -5 12 -3 12 4 0 8 4 8 15 -1
8 -7 15 -8 15 -3 0 12 70 10 71 -2 1 -5 1 -14 0 -18 -1 -5 3 -6 9 -2 6 3 7 11
4 17 -5 7 -1 9 9 5 10 -4 17 -1 17 6 0 8 4 6 10 -3 8 -12 10 -12 10 -1 0 11 3
11 17 0 10 -8 14 -9 10 -2 -5 7 -1 12 10 12 32 0 87 9 121 19 17 6 32 8 32 5
0 -3 7 0 15 7 8 7 15 9 15 5 0 -4 7 -2 15 5 8 7 15 9 15 5 0 -4 7 -2 15 5 8 6
19 9 25 5 5 -3 10 -1 10 4 0 6 3 10 8 9 4 -1 31 10 60 25 30 15 58 24 63 21 5
-3 8 0 7 8 -2 7 3 12 10 10 6 -1 12 1 12 6 0 4 20 18 45 32 25 14 45 28 45 32
0 5 4 8 10 8 13 0 57 36 146 122 63 60 164 188 164 207 0 5 4 11 8 13 7 3 29
38 81 131 11 20 20 38 20 40 -1 1 6 20 16 42 38 90 93 284 87 308 -1 4 3 7 9
7 8 0 9 4 0 13 -6 8 -9 16 -6 19 24 24 25 305 1 418 -30 144 -48 207 -80 274
-14 30 -26 57 -26 60 0 3 -17 33 -37 68 -49 85 -115 170 -175 226 -28 26 -58
55 -67 65 -8 9 -20 17 -25 17 -5 0 -19 8 -30 19 -12 10 -46 31 -76 47 -30 16
-58 33 -61 37 -3 5 -9 8 -13 8 -7 -1 -33 7 -61 19 -29 12 -58 23 -70 26 -115
29 -146 33 -280 38 -44 1 -92 -1 -107 -5 -17 -5 -29 -3 -32 4 -3 8 -5 7 -5 -2z"/>
<path d="M3590 9401 c0 -6 4 -13 10 -16 6 -3 7 1 4 9 -7 18 -14 21 -14 7z"/>
<path d="M3553 9385 c0 -8 4 -12 9 -9 5 3 6 10 3 15 -9 13 -12 11 -12 -6z"/>
<path d="M3505 9240 c-3 -6 1 -7 9 -4 18 7 21 14 7 14 -6 0 -13 -4 -16 -10z"/>
<path d="M3539 9233 c-13 -16 -12 -17 4 -4 16 13 21 21 13 21 -2 0 -10 -8 -17
-17z"/>
<path d="M3500 9185 c0 -2 6 -8 13 -14 10 -8 14 -7 14 2 0 8 -6 14 -14 14 -7
0 -13 -1 -13 -2z"/>
<path d="M3499 9073 c-13 -16 -12 -17 4 -4 9 7 17 15 17 17 0 8 -8 3 -21 -13z"/>
<path d="M3480 8975 c-7 -9 -11 -17 -9 -20 3 -2 10 5 17 15 14 24 10 26 -8 5z"/>
<path d="M6233 8915 c0 -8 4 -12 9 -9 5 3 6 10 3 15 -9 13 -12 11 -12 -6z"/>
<path d="M6180 8880 c8 -5 20 -10 25 -10 6 0 3 5 -5 10 -8 5 -19 10 -25 10 -5
0 -3 -5 5 -10z"/>
<path d="M6180 8840 c-8 -5 -10 -10 -5 -10 6 0 17 5 25 10 8 5 11 10 5 10 -5
0 -17 -5 -25 -10z"/>
<path d="M3474 8826 c1 -8 5 -18 8 -22 4 -3 5 1 4 10 -1 8 -5 18 -8 22 -4 3
-5 -1 -4 -10z"/>
<path d="M3427 8799 c7 -7 15 -10 18 -7 3 3 -2 9 -12 12 -14 6 -15 5 -6 -5z"/>
<path d="M6145 8780 c-3 -6 1 -7 9 -4 18 7 21 14 7 14 -6 0 -13 -4 -16 -10z"/>
<path d="M3475 8729 c-4 -6 -5 -12 -2 -15 2 -3 7 2 10 11 7 17 1 20 -8 4z"/>
<path d="M6120 8725 c0 -2 6 -8 13 -14 10 -8 14 -7 14 2 0 8 -6 14 -14 14 -7
0 -13 -1 -13 -2z"/>
<path d="M3435 8700 c-3 -5 -1 -10 4 -10 6 0 11 5 11 10 0 6 -2 10 -4 10 -3 0
-8 -4 -11 -10z"/>
<path d="M6075 8649 c-4 -6 -5 -12 -2 -15 2 -3 7 2 10 11 7 17 1 20 -8 4z"/>
<path d="M3470 8615 c5 -7 6 -16 2 -21 -4 -5 -3 -5 2 -1 15 12 15 34 0 34 -9
0 -11 -4 -4 -12z"/>
<path d="M3429 8603 c-13 -16 -12 -17 4 -4 9 7 17 15 17 17 0 8 -8 3 -21 -13z"/>
<path d="M2340 8540 c0 -3 -12 -6 -27 -6 -33 -1 -83 -11 -115 -23 -13 -4 -31
-7 -41 -5 -9 1 -15 -2 -11 -7 5 -8 -9 -13 -28 -10 -5 0 -8 -4 -8 -11 0 -6 -3
-8 -7 -5 -3 4 -12 2 -19 -4 -8 -6 -21 -9 -29 -5 -9 3 -13 2 -10 -4 3 -6 -2
-13 -12 -17 -10 -4 -35 -17 -56 -30 -21 -13 -42 -21 -47 -18 -6 4 -7 -1 -3
-11 4 -12 3 -15 -5 -10 -7 4 -12 2 -12 -4 0 -6 -7 -13 -16 -17 -20 -7 -128
-115 -151 -149 -9 -14 -22 -23 -29 -20 -7 3 -16 0 -20 -6 -4 -6 -3 -8 4 -4 6
3 13 2 17 -4 3 -6 -1 -13 -9 -16 -9 -3 -13 -10 -10 -15 3 -5 1 -9 -3 -9 -5 0
-19 -22 -32 -50 -13 -27 -28 -50 -34 -50 -6 0 -8 -3 -4 -6 3 -4 -2 -23 -12
-43 -10 -20 -21 -49 -25 -64 -4 -15 -10 -26 -14 -23 -4 2 -8 -6 -8 -17 -1 -12
-4 -31 -7 -42 -3 -11 -6 -28 -6 -38 -1 -10 -5 -16 -10 -13 -5 4 -7 -7 -5 -22
3 -18 -1 -34 -11 -42 -8 -7 -15 -18 -15 -24 0 -6 5 -4 10 4 7 11 9 3 7 -27 -1
-24 -6 -43 -11 -43 -4 0 -6 -6 -3 -14 3 -8 1 -17 -6 -20 -9 -3 -8 -5 1 -5 7
-1 10 -6 7 -11 -4 -6 -6 -44 -6 -85 0 -41 -4 -77 -9 -80 -6 -3 -10 -11 -10
-18 0 -6 6 -3 13 8 10 12 16 14 21 7 4 -7 2 -12 -5 -12 -8 0 -9 -3 0 -13 13
-16 3 -30 -14 -19 -6 4 -2 -1 8 -10 13 -13 15 -18 6 -18 -11 0 -11 -2 -2 -8 7
-5 14 -21 15 -38 1 -16 4 -33 7 -39 3 -5 7 -19 8 -29 2 -11 9 -26 16 -35 9
-12 9 -13 0 -7 -16 9 -17 11 8 -53 11 -30 18 -60 15 -68 -3 -8 -2 -12 3 -9 14
9 50 -97 38 -112 -7 -9 -6 -11 6 -6 13 5 22 -5 37 -40 10 -25 24 -46 31 -46 6
0 9 -9 6 -20 -3 -12 0 -20 7 -20 20 0 39 -40 26 -55 -9 -11 -7 -12 9 -8 16 4
21 1 21 -13 0 -9 3 -14 7 -11 3 4 18 -10 32 -31 13 -20 31 -43 39 -51 7 -7 11
-20 8 -28 -3 -8 -2 -12 3 -9 11 7 43 -29 34 -38 -4 -4 1 -4 12 0 11 4 17 4 13
-1 -8 -9 4 -21 54 -55 20 -13 34 -28 32 -32 -3 -4 0 -9 5 -9 21 -3 26 -5 46
-18 16 -10 17 -11 2 -7 -11 3 -15 2 -12 -4 3 -6 15 -10 26 -10 10 0 19 -5 19
-10 0 -6 3 -9 8 -9 24 4 34 -2 24 -14 -8 -10 -6 -13 8 -13 10 0 16 5 14 11 -3
5 0 3 8 -5 7 -8 22 -17 33 -18 11 -2 22 -8 23 -13 2 -5 12 -9 23 -9 10 0 19
-5 19 -10 0 -6 3 -9 8 -9 21 4 32 -2 26 -13 -6 -10 -4 -10 8 0 11 9 18 10 23
2 3 -5 15 -10 26 -10 13 0 18 -4 13 -12 -5 -7 -2 -9 8 -5 9 3 21 0 28 -6 10
-9 11 -9 6 1 -10 17 9 15 27 -2 11 -11 17 -12 26 -3 8 8 11 8 11 -2 0 -11 3
-11 17 0 14 12 16 12 8 0 -6 -11 -4 -13 8 -8 10 3 17 3 17 -1 0 -5 15 -7 32
-6 18 1 39 -3 47 -9 12 -9 13 -9 7 1 -4 6 -2 12 3 12 6 0 11 -5 11 -11 0 -6 5
-7 13 -2 6 4 39 9 72 10 71 4 92 7 101 16 4 3 16 2 27 -4 15 -9 18 -8 12 2 -6
9 -3 11 8 6 9 -3 17 -2 19 3 2 6 15 11 31 12 15 1 27 5 27 8 0 3 9 7 20 8 11
1 29 3 39 4 11 1 19 7 18 13 -1 5 8 9 20 9 13 -1 20 3 17 7 -5 8 3 11 23 8 3
0 10 6 15 15 5 9 13 14 19 11 5 -4 9 -1 9 6 0 7 3 10 6 6 4 -3 12 -1 20 6 30
27 44 37 46 35 8 -6 198 175 198 189 0 5 10 19 23 33 12 14 29 39 37 55 8 17
21 36 28 43 7 8 10 18 7 23 -4 5 -2 9 3 9 5 0 15 18 22 40 7 22 18 40 23 40 6
0 7 3 4 6 -3 4 -1 16 5 28 7 11 13 26 14 31 0 6 2 13 4 18 1 4 4 12 5 17 1 6
3 11 5 13 2 3 6 21 14 66 4 19 12 43 17 54 8 15 8 18 -1 12 -9 -5 -10 -2 -3
11 9 18 14 72 16 169 1 22 6 43 12 47 7 5 6 8 -1 8 -10 0 -14 42 -15 133 0 9
-3 17 -7 17 -4 0 -8 17 -9 38 -1 45 -8 74 -22 101 -14 25 -14 34 0 26 6 -4 1
11 -10 34 -12 23 -18 41 -14 41 4 0 2 5 -5 12 -7 7 -12 20 -12 30 0 10 -4 18
-10 18 -5 0 -7 7 -4 15 4 8 1 15 -5 15 -6 0 -11 9 -11 20 0 11 -4 20 -10 20
-5 0 -9 3 -8 8 4 13 -13 52 -23 52 -5 0 -9 9 -9 20 0 11 -4 20 -10 20 -5 0
-10 5 -10 11 0 30 -164 239 -188 239 -4 0 -29 21 -57 46 -71 64 -186 141 -272
181 -40 18 -76 34 -80 34 -5 0 -14 5 -20 11 -7 6 -13 7 -13 4 0 -4 -8 -2 -18
3 -22 12 -47 18 -157 37 -77 14 -265 17 -265 4z"/>
<path d="M6059 8548 c-5 -16 -4 -46 2 -42 4 2 7 13 6 24 -1 17 -5 26 -8 18z"/>
<path d="M3470 8521 c0 -6 4 -13 10 -16 6 -3 7 1 4 9 -7 18 -14 21 -14 7z"/>
<path d="M3456 8482 c-2 -4 -1 -14 4 -22 7 -11 9 -9 7 8 -1 24 -3 26 -11 14z"/>
<path d="M3513 8455 c0 -8 4 -12 9 -9 5 3 6 10 3 15 -9 13 -12 11 -12 -6z"/>
<path d="M6016 8447 c3 -10 9 -15 12 -12 3 3 0 11 -7 18 -10 9 -11 8 -5 -6z"/>
<path d="M3510 8400 c0 -5 5 -10 10 -10 6 0 10 5 10 10 0 6 -4 10 -10 10 -5 0
-10 -4 -10 -10z"/>
<path d="M3533 8287 c0 -8 6 -14 14 -14 9 0 10 4 2 14 -6 7 -12 13 -14 13 -1
0 -2 -6 -2 -13z"/>
<path d="M5970 8280 c0 -5 5 -10 11 -10 5 0 7 5 4 10 -3 6 -8 10 -11 10 -2 0
-4 -4 -4 -10z"/>
<path d="M5975 8200 c3 -5 8 -10 11 -10 2 0 4 5 4 10 0 6 -5 10 -11 10 -5 0
-7 -4 -4 -10z"/>
<path d="M5995 8160 c-3 -5 -1 -10 4 -10 6 0 11 5 11 10 0 6 -2 10 -4 10 -3 0
-8 -4 -11 -10z"/>
<path d="M5995 8131 c-3 -5 -2 -12 3 -15 5 -3 9 1 9 9 0 17 -3 19 -12 6z"/>
<path d="M3591 8107 c-8 -10 -7 -14 2 -14 8 0 14 6 14 14 0 7 -1 13 -2 13 -2
0 -8 -6 -14 -13z"/>
<path d="M1610 8100 c0 -5 5 -10 11 -10 5 0 7 5 4 10 -3 6 -8 10 -11 10 -2 0
-4 -4 -4 -10z"/>
<path d="M5970 8099 c0 -5 5 -7 10 -4 6 3 10 8 10 11 0 2 -4 4 -10 4 -5 0 -10
-5 -10 -11z"/>
<path d="M1631 8067 c-13 -21 -12 -21 5 -5 10 10 16 20 13 22 -3 3 -11 -5 -18
-17z"/>
<path d="M5976 8067 c3 -10 9 -15 12 -12 3 3 0 11 -7 18 -10 9 -11 8 -5 -6z"/>
<path d="M1576 8022 c-3 -4 4 -9 15 -9 23 -2 25 3 4 10 -8 4 -16 3 -19 -1z"/>
<path d="M3653 8006 c0 -8 5 -14 11 -13 5 1 10 -3 11 -10 0 -17 12 -25 12 -8
0 8 -8 22 -17 30 -14 13 -17 13 -17 1z"/>
<path d="M1589 7983 c-13 -16 -12 -17 4 -4 9 7 17 15 17 17 0 8 -8 3 -21 -13z"/>
<path d="M6000 7966 c0 -2 8 -10 18 -17 15 -13 16 -12 3 4 -13 16 -21 21 -21
13z"/>
<path d="M1550 7938 c0 -4 4 -8 9 -8 6 0 12 4 15 8 3 5 -1 9 -9 9 -8 0 -15 -4
-15 -9z"/>
<path d="M3650 7926 c0 -2 7 -7 16 -10 8 -3 12 -2 9 4 -6 10 -25 14 -25 6z"/>
<path d="M3733 7887 c0 -8 6 -14 14 -14 9 0 10 4 2 14 -6 7 -12 13 -14 13 -1
0 -2 -6 -2 -13z"/>
<path d="M1486 7858 c3 -5 10 -6 15 -3 13 9 11 12 -6 12 -8 0 -12 -4 -9 -9z"/>
<path d="M3760 7860 c-9 -6 -10 -10 -3 -10 6 0 15 5 18 10 8 12 4 12 -15 0z"/>
<path d="M6037 7835 c-4 -8 -3 -16 1 -19 4 -3 9 4 9 15 2 23 -3 25 -10 4z"/>
<path d="M3794 7802 c4 -3 14 -7 22 -8 9 -1 13 0 10 4 -4 3 -14 7 -22 8 -9 1
-13 0 -10 -4z"/>
<path d="M1446 7698 c3 -5 10 -6 15 -3 13 9 11 12 -6 12 -8 0 -12 -4 -9 -9z"/>
<path d="M1466 7641 c-3 -4 4 -7 14 -6 27 2 33 10 10 12 -11 1 -22 -2 -24 -6z"/>
<path d="M4000 7620 c-9 -6 -10 -10 -3 -10 6 0 15 5 18 10 8 12 4 12 -15 0z"/>
<path d="M1470 7556 c0 -2 8 -10 18 -17 15 -13 16 -12 3 4 -13 16 -21 21 -21
13z"/>
<path d="M1430 7521 c0 -6 4 -13 10 -16 6 -3 7 1 4 9 -7 18 -14 21 -14 7z"/>
<path d="M1460 7526 c0 -2 8 -10 18 -17 15 -13 16 -12 3 4 -13 16 -21 21 -21
13z"/>
<path d="M4197 7509 c7 -7 15 -10 18 -7 3 3 -2 9 -12 12 -14 6 -15 5 -6 -5z"/>
<path d="M1465 7480 c-3 -6 1 -7 9 -4 18 7 21 14 7 14 -6 0 -13 -4 -16 -10z"/>
<path d="M6176 7478 c3 -5 10 -6 15 -3 13 9 11 12 -6 12 -8 0 -12 -4 -9 -9z"/>
<path d="M1455 7420 c-3 -5 -1 -10 4 -10 6 0 11 5 11 10 0 6 -2 10 -4 10 -3 0
-8 -4 -11 -10z"/>
<path d="M4356 7418 c3 -4 11 -5 19 -1 21 7 19 12 -4 10 -11 0 -18 -5 -15 -9z"/>
<path d="M6185 7420 c-3 -6 1 -7 9 -4 18 7 21 14 7 14 -6 0 -13 -4 -16 -10z"/>
<path d="M4490 7400 c0 -5 5 -10 11 -10 5 0 7 5 4 10 -3 6 -8 10 -11 10 -2 0
-4 -4 -4 -10z"/>
<path d="M6220 7405 c0 -2 6 -8 13 -14 10 -8 14 -7 14 2 0 8 -6 14 -14 14 -7
0 -13 -1 -13 -2z"/>
<path d="M8614 7402 c6 -10 -30 -18 -65 -14 -3 1 -27 -5 -54 -13 -26 -8 -51
-12 -56 -9 -5 3 -9 0 -9 -6 0 -6 -4 -9 -8 -6 -5 3 -21 -2 -36 -9 -16 -8 -32
-12 -37 -9 -5 3 -9 1 -9 -5 0 -5 -9 -8 -20 -6 -11 2 -18 0 -15 -6 5 -8 -15
-14 -37 -10 -5 0 -8 -4 -8 -10 0 -6 -9 -9 -20 -6 -11 3 -18 2 -15 -3 7 -11
-24 -22 -37 -13 -7 3 -8 1 -4 -6 4 -6 0 -14 -11 -18 -10 -4 -41 -22 -70 -41
-28 -19 -56 -31 -62 -27 -7 3 -8 0 -5 -9 4 -10 -1 -19 -12 -23 -24 -9 -39 -23
-134 -115 -44 -43 -76 -78 -72 -78 4 0 2 -4 -4 -8 -15 -10 -119 -164 -135
-201 -11 -24 -19 -30 -34 -25 -18 4 -18 4 -2 -6 9 -6 17 -16 17 -21 0 -6 -4
-7 -10 -4 -5 3 -10 1 -10 -5 0 -6 -4 -9 -9 -6 -5 3 -11 -1 -14 -9 -4 -9 -1
-12 9 -8 7 3 14 0 14 -6 0 -6 -4 -11 -10 -11 -5 0 -10 -9 -10 -20 0 -11 -5
-20 -12 -20 -6 0 -9 -3 -5 -6 3 -4 -1 -23 -9 -43 -9 -20 -18 -47 -20 -60 -3
-13 -9 -32 -14 -41 -5 -10 -6 -20 -3 -24 3 -3 1 -6 -6 -6 -7 0 -9 -5 -5 -12 6
-10 4 -10 -8 0 -13 10 -18 10 -24 1 -4 -8 -3 -9 4 -5 8 5 12 -3 12 -23 0 -18
-5 -31 -12 -31 -10 0 -10 -2 0 -9 11 -6 10 -10 -5 -16 -10 -5 -25 -7 -33 -6
-8 2 -12 0 -8 -4 3 -3 14 -8 24 -9 12 -2 18 -12 19 -35 1 -24 -2 -30 -13 -26
-11 4 -12 2 -5 -7 16 -21 22 -57 9 -63 -8 -4 -8 -6 1 -11 7 -3 9 -12 6 -20 -3
-7 -9 -12 -13 -9 -15 9 -4 -26 11 -37 11 -7 9 -9 -9 -5 -12 3 -20 1 -16 -4 3
-5 13 -9 22 -9 15 0 15 -2 2 -10 -8 -5 -10 -10 -3 -10 6 0 9 -9 5 -22 -4 -16
-2 -19 9 -13 8 5 7 0 -3 -12 -21 -23 -23 -33 -5 -33 9 0 14 -16 16 -47 1 -26
8 -51 14 -55 9 -6 9 -8 -1 -8 -10 0 -10 -4 2 -16 20 -19 20 -25 2 -18 -8 3
-17 0 -22 -7 -4 -7 -3 -10 4 -6 5 4 18 4 27 1 13 -5 14 -8 3 -15 -11 -7 -11
-9 1 -9 8 0 11 -7 8 -20 -3 -10 0 -18 5 -17 9 2 17 -18 20 -50 1 -7 5 -13 8
-13 9 0 36 -61 32 -72 -1 -5 5 -8 14 -8 8 0 12 -4 9 -10 -3 -5 -1 -10 4 -10 6
0 11 -7 11 -15 0 -8 5 -15 10 -15 6 0 10 -5 10 -10 0 -12 10 -25 53 -70 15
-15 27 -33 27 -39 0 -6 7 -11 17 -11 9 0 13 -3 10 -7 -4 -3 9 -17 28 -30 32
-22 40 -34 36 -56 -1 -5 3 -6 9 -2 6 3 8 12 4 18 -3 7 1 4 9 -5 8 -10 23 -18
33 -19 11 0 13 -3 7 -6 -7 -2 -13 -9 -13 -14 0 -4 6 -6 13 -3 7 2 23 -5 35
-16 12 -12 31 -22 42 -23 11 -1 20 -5 20 -9 0 -4 7 -8 15 -8 8 0 15 -5 15 -11
0 -6 9 -8 23 -4 15 4 18 3 9 -3 -11 -7 -9 -10 7 -15 12 -3 19 -1 15 5 -8 12
38 -13 48 -27 5 -6 8 -4 8 5 0 13 2 13 9 0 6 -8 7 -19 5 -25 -3 -5 2 -1 10 9
16 20 16 20 16 0 0 -15 2 -16 9 -5 11 16 34 5 24 -12 -5 -9 -3 -9 8 0 12 10
18 10 29 0 10 -10 11 -9 5 3 -6 12 -5 12 5 3 7 -6 19 -9 27 -6 8 3 19 0 23 -7
7 -11 11 -11 24 -1 10 9 16 10 16 3 0 -7 8 -9 18 -5 15 6 16 5 2 -13 -14 -17
-13 -18 1 -7 9 7 20 9 24 5 5 -4 5 -1 1 6 -9 14 4 15 38 2 21 -8 24 -7 19 8
-6 15 -5 15 10 3 14 -11 20 -11 32 -1 8 7 15 8 15 2 0 -5 15 -8 33 -6 17 1 32
3 32 4 0 1 13 4 29 6 16 3 38 10 48 15 13 7 18 6 18 -2 0 -8 4 -9 13 0 8 6 17
8 20 4 4 -3 7 -1 7 6 0 8 7 11 15 7 8 -3 15 0 15 7 0 8 4 6 10 -3 8 -12 10
-12 10 -1 0 8 3 11 7 8 3 -4 17 0 30 8 13 9 28 13 33 10 6 -3 10 -1 10 4 0 6
9 11 20 11 11 0 20 4 20 10 0 14 103 71 118 65 7 -3 11 -1 7 4 -3 5 8 15 25
23 16 7 30 16 30 20 0 5 7 8 15 8 8 0 15 4 15 8 0 4 12 15 28 24 15 9 41 29
58 45 93 83 124 114 124 123 0 6 4 10 9 10 12 0 98 117 148 200 36 59 99 193
109 230 33 122 54 213 60 263 14 114 7 277 -16 357 -5 18 -8 35 -8 39 1 3 -3
16 -10 27 -6 12 -9 24 -6 27 3 3 2 12 -2 19 -5 7 -9 18 -10 24 -4 24 -87 194
-95 194 -5 0 -9 5 -9 11 0 33 -197 239 -229 239 -6 0 -11 5 -11 10 0 6 -6 10
-14 10 -8 0 -16 4 -18 8 -5 12 -144 77 -203 95 -77 24 -107 30 -145 33 -44 4
-105 12 -105 14 0 1 -19 2 -43 3 -23 1 -42 0 -42 -3 0 -9 -44 -6 -59 4 -10 6
-12 6 -7 -2z"/>
<path d="M1455 7340 c3 -5 8 -10 11 -10 2 0 4 5 4 10 0 6 -5 10 -11 10 -5 0
-7 -4 -4 -10z"/>
<path d="M1456 7293 c-6 -14 -5 -15 5 -6 7 7 10 15 7 18 -3 3 -9 -2 -12 -12z"/>
<path d="M1470 7266 c0 -2 7 -7 16 -10 8 -3 12 -2 9 4 -6 10 -25 14 -25 6z"/>
<path d="M1515 7227 c0 -17 6 -32 13 -33 7 -1 8 0 3 2 -5 3 -8 16 -5 29 2 13
1 26 -4 29 -4 2 -7 -9 -7 -27z"/>
<path d="M5122 7238 c-7 -7 -12 -8 -12 -2 0 5 -5 2 -10 -6 -7 -11 -10 -11 -10
-2 0 7 -5 10 -12 6 -6 -4 -27 -8 -47 -10 -20 -1 -36 -3 -36 -4 0 -1 -11 -3
-25 -5 -60 -9 -87 -14 -115 -21 -16 -3 -37 -7 -45 -8 -9 -1 -21 -5 -28 -10 -7
-4 -26 -9 -43 -11 -17 -3 -36 -8 -43 -13 -6 -5 -19 -8 -28 -7 -10 2 -18 -1
-18 -6 0 -5 -11 -9 -25 -9 -14 0 -25 -4 -25 -9 0 -8 -56 -25 -72 -22 -5 0 -8
-4 -8 -10 0 -5 -4 -8 -9 -4 -5 3 -16 -1 -24 -9 -8 -8 -17 -13 -20 -10 -3 4
-21 -6 -40 -20 -18 -14 -36 -23 -40 -20 -3 3 -19 -3 -35 -15 -17 -12 -38 -21
-48 -21 -9 0 -14 -3 -10 -7 3 -4 -12 -15 -34 -25 -22 -10 -40 -24 -40 -30 0
-6 -3 -9 -6 -5 -4 3 -13 -1 -21 -9 -8 -8 -19 -11 -25 -8 -7 5 -8 2 -3 -6 6
-10 4 -12 -9 -7 -9 4 -15 3 -11 -2 3 -5 -11 -19 -30 -31 -19 -12 -35 -26 -35
-31 0 -6 -4 -7 -10 -4 -5 3 -10 1 -10 -6 0 -7 -3 -10 -6 -7 -3 3 -23 -12 -45
-34 -24 -24 -44 -37 -51 -32 -7 4 -10 4 -6 -1 9 -9 -19 -38 -30 -31 -5 3 -9
-1 -9 -9 0 -8 5 -11 10 -8 6 3 7 1 3 -5 -4 -7 -11 -12 -17 -12 -15 0 -165
-160 -161 -172 1 -4 -7 -12 -18 -18 -11 -6 -20 -16 -20 -23 0 -7 -9 -19 -20
-27 -11 -8 -20 -21 -20 -28 0 -9 -6 -12 -15 -8 -13 4 -14 2 -5 -14 8 -16 8
-20 -2 -18 -7 2 -14 -7 -16 -20 -2 -12 -7 -20 -12 -17 -5 3 -12 -6 -16 -20 -3
-14 -10 -25 -16 -25 -5 0 -6 5 -3 10 3 6 1 10 -5 10 -6 0 -8 -11 -6 -25 3 -14
0 -25 -5 -25 -6 0 -8 -4 -4 -9 3 -6 -3 -14 -12 -20 -10 -6 -13 -11 -8 -11 6 0
6 -3 0 -8 -6 -4 -18 -20 -28 -35 -10 -15 -23 -25 -28 -21 -7 4 -7 -1 0 -15 10
-18 9 -20 -5 -14 -12 4 -15 3 -10 -5 4 -6 -2 -20 -13 -31 -11 -11 -17 -22 -13
-25 3 -3 0 -6 -6 -6 -7 0 -12 -5 -12 -11 0 -6 -9 -23 -20 -39 -11 -15 -16 -31
-12 -35 4 -5 2 -5 -4 -2 -6 4 -16 -5 -23 -19 -6 -14 -16 -22 -21 -19 -6 3 -7
-1 -4 -9 4 -9 1 -16 -6 -16 -7 0 -10 -6 -7 -14 3 -8 -1 -17 -9 -20 -8 -3 -14
-13 -14 -21 0 -9 -4 -13 -10 -10 -5 3 -10 -3 -10 -13 0 -11 -7 -23 -16 -26 -8
-3 -12 -10 -9 -16 3 -5 1 -10 -5 -10 -6 0 -9 -4 -5 -9 3 -6 -2 -14 -10 -19 -9
-4 -17 -18 -18 -29 0 -12 -4 -20 -8 -17 -11 6 -31 -24 -24 -36 3 -5 -1 -10 -9
-10 -9 0 -15 -3 -15 -7 3 -19 -2 -36 -8 -30 -3 4 -14 -11 -24 -34 -11 -22 -23
-38 -29 -34 -6 4 -10 3 -9 -2 1 -4 1 -16 0 -27 -1 -15 -4 -16 -16 -6 -13 11
-14 10 -9 -5 6 -14 4 -16 -7 -10 -12 8 -12 6 0 -8 12 -16 8 -22 -12 -18 -5 1
-6 -2 -3 -7 7 -12 -23 -54 -35 -47 -5 4 -9 1 -9 -4 0 -6 6 -11 13 -11 6 0 3
-7 -8 -16 -11 -8 -19 -20 -17 -25 1 -5 -2 -9 -8 -9 -6 0 -9 -5 -8 -11 2 -6 -3
-14 -11 -17 -9 -3 -11 0 -6 8 5 9 4 11 -4 6 -9 -6 -9 -11 0 -22 8 -10 8 -14 0
-14 -6 0 -11 -7 -11 -16 0 -10 -6 -14 -14 -11 -10 4 -12 0 -9 -14 3 -11 0 -19
-6 -19 -7 0 -9 -5 -5 -12 5 -7 2 -9 -9 -5 -12 4 -15 1 -12 -14 3 -14 0 -19 -9
-16 -7 3 -13 -1 -13 -9 0 -7 4 -11 9 -8 18 11 6 -16 -36 -79 -23 -37 -46 -63
-50 -60 -4 4 -4 0 0 -10 3 -10 1 -17 -5 -17 -6 0 -11 -7 -11 -15 0 -8 -7 -15
-15 -15 -9 0 -12 -6 -8 -17 5 -13 2 -15 -12 -10 -14 6 -16 5 -7 -6 9 -10 7
-18 -6 -33 -10 -10 -21 -27 -25 -37 -4 -11 -12 -15 -19 -11 -8 5 -7 0 2 -11
13 -17 13 -18 -1 -13 -10 4 -16 1 -16 -5 1 -34 -5 -47 -20 -47 -15 0 -16 -2
-3 -10 13 -8 13 -11 1 -19 -7 -5 -11 -13 -7 -19 3 -6 -2 -15 -11 -21 -10 -5
-17 -12 -16 -15 5 -13 -10 -66 -19 -66 -5 0 -8 -6 -7 -12 5 -28 -13 -88 -25
-81 -7 4 -7 1 1 -7 10 -11 9 -16 -5 -27 -9 -8 -12 -12 -5 -9 7 4 10 -1 8 -11
-2 -10 -4 -18 -5 -18 -3 0 -8 -53 -11 -103 -1 -24 -6 -45 -11 -48 -4 -3 -8
-11 -8 -17 0 -9 2 -9 8 0 4 6 8 -20 8 -59 1 -42 -2 -65 -7 -57 -5 8 -9 9 -9 3
0 -5 6 -16 13 -23 10 -11 9 -12 -3 -6 -13 8 -13 6 -2 -8 8 -9 11 -21 8 -26 -4
-5 -3 -12 2 -15 5 -3 7 -19 6 -35 -1 -17 2 -31 6 -31 10 0 8 -20 -4 -39 -6
-10 -5 -12 2 -7 7 4 13 1 13 -8 1 -9 2 -19 4 -23 6 -25 18 -88 16 -91 -1 -1 5
-10 14 -19 20 -20 11 -30 -11 -12 -16 13 -16 12 -4 -8 8 -12 18 -19 22 -17 8
5 10 0 12 -28 1 -7 8 -18 16 -25 13 -11 13 -12 1 -13 -11 0 -10 -4 4 -13 10
-8 15 -19 11 -25 -4 -7 -2 -12 3 -12 6 0 11 -7 11 -15 0 -8 5 -15 11 -15 5 0
7 -4 4 -10 -3 -5 -1 -10 4 -10 6 0 11 -5 11 -11 0 -15 61 -109 71 -109 4 0 6
-9 4 -20 -2 -11 1 -23 7 -26 7 -5 8 -2 3 7 -8 12 -6 12 8 0 9 -7 17 -20 17
-27 0 -8 6 -14 14 -14 22 0 25 -23 7 -44 -15 -18 -15 -18 6 -5 20 12 24 11 42
-10 11 -13 18 -27 16 -32 -3 -4 0 -11 6 -15 8 -4 9 -3 5 4 -4 7 -2 12 3 12 6
0 11 -9 11 -19 0 -11 4 -23 10 -26 6 -4 7 1 3 12 -4 11 7 5 30 -16 20 -19 34
-38 31 -43 -3 -4 3 -5 12 -1 14 5 16 3 11 -11 -4 -10 -3 -15 3 -11 12 7 50
-12 72 -37 9 -11 20 -19 24 -18 5 1 11 -7 15 -17 6 -13 8 -14 8 -3 1 12 3 12
10 2 4 -7 14 -12 22 -10 8 2 13 -4 13 -15 -1 -12 2 -15 10 -8 13 11 50 -11 38
-24 -4 -5 0 -6 8 -3 20 7 63 -9 56 -21 -3 -5 3 -7 14 -4 11 3 20 1 20 -5 0 -6
9 -8 20 -5 15 4 20 0 20 -13 0 -16 2 -17 10 -4 7 12 12 12 22 2 6 -6 20 -12
30 -12 10 0 31 -8 45 -17 15 -10 24 -12 20 -5 -11 17 9 15 27 -4 12 -12 16
-12 16 -2 0 10 3 10 9 -2 6 -8 7 -18 4 -24 -3 -5 -1 -6 5 -2 6 4 9 13 5 21 -4
11 -1 13 10 9 9 -3 14 -13 10 -22 -4 -13 -3 -14 5 -4 13 19 88 11 84 -9 -1 -9
2 -8 12 4 14 18 36 19 49 2 5 -7 10 -7 15 0 9 13 52 15 52 2 0 -5 7 -4 15 3
11 9 15 9 15 1 0 -7 5 -9 12 -5 18 11 48 12 54 2 3 -5 12 -4 20 3 7 6 21 9 29
5 8 -3 15 -1 15 4 0 5 12 7 26 4 17 -3 23 -1 19 7 -6 8 -2 8 14 0 16 -9 21 -9
21 0 0 6 7 9 15 5 8 -3 15 -1 15 5 0 5 6 9 13 8 17 -3 69 12 85 24 7 5 15 7
19 4 3 -4 15 -1 27 5 11 7 23 13 26 13 3 0 14 6 25 12 11 6 25 12 30 13 6 1
21 7 35 12 14 5 33 10 42 11 9 1 15 4 12 8 -2 3 18 12 44 19 26 7 60 20 76 27
22 12 27 12 20 1 -4 -7 2 -5 13 4 11 10 32 19 46 20 15 1 27 5 27 9 0 3 13 5
30 4 17 -1 27 2 23 8 -4 6 0 8 10 4 9 -3 19 -2 22 2 2 5 16 11 30 13 22 5 24
3 13 -11 -12 -15 -11 -15 7 0 33 27 49 34 40 18 -7 -12 -6 -12 7 -1 13 10 17
10 21 0 3 -8 6 -5 6 6 1 18 3 18 27 -5 14 -13 24 -18 22 -11 -2 8 6 19 17 25
11 7 23 17 27 22 5 6 8 5 8 -3 0 -8 5 -10 12 -6 7 5 28 9 48 10 19 1 50 4 68
8 26 5 32 4 26 -6 -6 -10 -4 -10 7 -2 20 15 69 16 86 3 11 -10 12 -8 7 6 -6
14 -4 16 7 10 8 -5 27 -8 44 -6 65 8 80 7 87 -3 5 -7 8 -6 8 4 0 13 1 13 10 0
7 -11 10 -11 10 -2 0 7 4 10 10 7 5 -3 37 -6 70 -6 33 0 58 -4 55 -9 -3 -5 -1
-12 5 -15 6 -4 9 -1 8 7 -3 15 40 18 60 4 7 -5 12 -4 12 3 0 7 5 9 10 6 6 -4
8 -10 6 -14 -3 -3 4 -7 15 -7 10 0 19 4 19 8 0 4 12 3 28 -3 15 -6 27 -10 27
-8 0 1 23 -2 50 -5 28 -4 53 -7 57 -7 4 0 26 -6 48 -14 22 -8 40 -12 40 -8 0
3 8 -3 18 -14 9 -10 14 -14 10 -9 -16 21 -7 24 25 9 17 -9 34 -19 37 -22 3 -3
14 -8 25 -9 11 -2 29 -11 39 -20 11 -10 16 -11 12 -4 -4 6 -3 12 3 12 13 0 22
-15 14 -24 -11 -10 -12 -37 -2 -30 5 3 7 9 4 14 -3 4 2 13 10 20 15 12 21 4
16 -23 -1 -5 3 -6 9 -2 6 3 8 10 6 14 -3 4 10 3 29 -3 19 -6 35 -18 36 -26 0
-10 2 -11 6 -3 3 9 10 10 21 4 9 -5 22 -9 27 -10 6 -1 10 -5 10 -10 0 -5 4
-13 9 -18 5 -5 6 -3 2 5 -9 16 6 16 23 0 11 -11 13 -10 7 2 -6 12 -5 11 6 -1
7 -9 21 -15 31 -13 14 2 18 -2 14 -16 -3 -13 0 -17 9 -13 8 3 11 10 8 17 -3 6
2 2 10 -8 12 -15 16 -16 16 -5 0 11 2 12 9 1 4 -8 11 -13 15 -13 18 3 20 0 6
-9 -9 -6 -10 -10 -3 -10 6 0 15 4 18 10 4 6 16 5 33 -3 15 -7 34 -13 42 -12 8
1 20 -2 26 -7 6 -4 25 -8 42 -10 18 -1 32 -5 32 -8 0 -3 14 -5 30 -4 17 1 32
-2 35 -7 3 -4 16 -4 30 1 18 7 25 5 29 -7 5 -12 9 -13 21 -3 12 10 15 10 15
-1 0 -9 3 -10 8 -4 8 12 67 14 78 3 4 -4 13 -3 21 3 10 9 13 8 13 -2 0 -10 2
-11 8 -2 4 7 37 13 75 15 37 2 67 6 67 11 0 4 5 7 11 7 5 0 7 -6 3 -12 -6 -9
-3 -9 9 1 9 7 24 11 32 7 8 -3 15 -2 15 3 0 5 9 11 20 14 11 3 20 1 20 -5 0
-5 7 -2 16 7 10 9 25 14 36 12 10 -3 16 -1 12 4 -3 5 2 10 10 10 9 1 21 3 26
4 6 1 15 3 21 4 5 0 8 5 4 10 -3 6 3 8 15 6 11 -2 22 1 25 6 4 5 11 7 16 4 5
-4 9 -1 9 5 0 6 5 8 10 5 6 -3 10 -1 10 4 0 6 6 11 14 11 8 0 22 7 30 16 9 8
16 12 16 8 0 -3 7 -1 15 6 8 7 15 9 15 4 0 -5 5 -1 11 9 5 9 17 17 24 17 8 0
15 5 15 11 0 5 5 7 10 4 6 -3 10 -2 10 4 0 5 10 13 22 17 12 3 34 20 50 37 15
17 28 27 28 22 0 -6 4 -5 8 1 4 6 29 30 55 53 27 22 46 41 43 41 -2 0 12 17
33 38 21 20 52 58 71 85 18 26 37 47 42 47 5 0 6 5 3 10 -3 5 -3 10 2 10 4 0
17 18 27 40 11 22 24 40 29 40 6 0 7 3 4 6 -4 4 2 19 13 34 11 15 17 30 13 34
-3 3 -1 6 5 6 7 0 11 3 10 8 -1 4 6 24 15 46 9 21 15 42 12 46 -3 5 -1 10 5
12 6 2 12 14 15 28 3 14 9 36 14 50 16 42 24 84 22 108 -1 12 1 22 6 22 5 0 8
16 7 35 -1 19 1 35 5 35 10 0 7 263 -3 279 -7 10 -6 12 4 6 9 -5 11 -4 6 3 -9
14 -15 45 -18 89 -1 18 -5 33 -8 33 -3 0 -7 14 -8 31 -1 18 -6 37 -9 43 -4 6
-8 16 -10 21 -13 58 -28 101 -36 106 -5 3 -8 9 -8 13 2 9 -40 96 -65 137 -13
20 -20 39 -17 43 3 3 -2 8 -11 12 -9 3 -13 10 -10 15 3 5 0 9 -5 9 -6 0 -11 7
-11 15 0 8 -4 15 -10 15 -5 0 -10 7 -10 15 0 8 -4 15 -10 15 -5 0 -10 7 -10
15 0 8 -4 15 -10 15 -5 0 -10 5 -10 11 0 6 -13 30 -30 54 -16 24 -30 46 -30
50 0 3 -8 15 -18 26 -11 10 -25 32 -33 47 -8 15 -28 47 -45 72 -16 25 -33 53
-37 63 -3 9 -11 17 -17 17 -5 0 -10 7 -10 15 0 8 -5 15 -12 15 -6 0 -9 3 -5 6
3 3 -10 28 -29 55 -19 27 -34 53 -34 59 0 5 -4 10 -10 10 -5 0 -10 7 -10 15 0
9 -7 18 -15 21 -8 4 -13 10 -10 14 2 4 -4 18 -15 31 -32 38 -34 42 -55 82 -11
20 -23 37 -28 37 -4 0 -5 5 -2 10 3 6 1 10 -4 10 -6 0 -11 7 -11 15 0 8 -4 15
-10 15 -5 0 -10 7 -10 15 0 8 -4 15 -10 15 -5 0 -10 6 -10 14 0 8 -4 16 -9 18
-5 2 -11 10 -13 18 -2 8 -10 22 -18 30 -8 8 -16 21 -18 28 -1 7 -13 25 -27 40
-13 14 -22 29 -19 34 3 4 0 8 -5 8 -6 0 -11 7 -11 15 0 8 -4 15 -10 15 -5 0
-10 7 -10 15 0 8 -4 15 -10 15 -5 0 -10 7 -10 15 0 8 -5 15 -12 15 -6 0 -9 3
-5 6 3 3 1 11 -4 18 -20 22 -99 148 -99 157 0 5 -4 9 -10 9 -5 0 -10 7 -10 15
0 8 -4 15 -10 15 -5 0 -10 6 -10 14 0 8 -9 21 -20 29 -11 8 -17 16 -15 19 3 3
-20 32 -52 65 -32 33 -94 99 -137 147 -63 70 -175 171 -271 244 -28 21 -135
89 -169 108 -22 11 -49 30 -61 42 -26 25 -184 104 -195 97 -5 -3 -10 0 -12 5
-2 6 -13 12 -26 13 -12 0 -22 4 -22 8 0 4 -15 10 -32 14 -36 8 -45 11 -53 15
-3 1 -9 4 -15 5 -5 1 -11 3 -12 5 -5 3 -42 11 -63 13 -11 1 -23 5 -26 10 -3 4
-22 8 -42 9 -20 1 -37 4 -37 8 0 5 -36 10 -87 13 -7 0 -13 3 -13 6 0 3 -22 6
-50 6 -27 0 -50 2 -50 5 0 3 -17 5 -37 4 -21 0 -41 4 -45 10 -5 8 -8 8 -8 0 0
-5 -13 -9 -30 -7 -16 2 -43 4 -60 6 -16 2 -30 -1 -30 -7 0 -6 -5 -5 -12 2 -7
7 -17 8 -29 2 -12 -7 -20 -6 -24 0 -4 6 -12 7 -18 3 -14 -10 -38 -10 -53 -1
-6 4 -16 2 -22 -4z m-252 -3942 c0 -11 -19 -15 -25 -6 -3 5 1 10 9 10 9 0 16
-2 16 -4z"/>
<path d="M6413 7230 c1 -21 10 -18 13 5 1 8 -2 15 -6 15 -5 0 -8 -9 -7 -20z"/>
<path d="M1495 7140 c3 -5 8 -10 11 -10 2 0 4 5 4 10 0 6 -5 10 -11 10 -5 0
-7 -4 -4 -10z"/>
<path d="M6591 7133 c7 -12 15 -20 18 -17 3 2 -3 12 -13 22 -17 16 -18 16 -5
-5z"/>
<path d="M1553 7090 c-1 -11 2 -20 7 -20 4 0 7 7 6 15 -3 23 -12 26 -13 5z"/>
<path d="M1554 7049 c-3 -6 2 -18 12 -27 17 -16 17 -16 5 0 -7 9 -10 22 -6 28
3 5 4 10 1 10 -3 0 -8 -5 -12 -11z"/>
<path d="M6836 7047 c3 -10 9 -15 12 -12 3 3 0 11 -7 18 -10 9 -11 8 -5 -6z"/>
<path d="M1587 6979 c7 -7 15 -10 18 -7 3 3 -2 9 -12 12 -14 6 -15 5 -6 -5z"/>
<path d="M7695 6860 c3 -5 8 -10 11 -10 2 0 4 5 4 10 0 6 -5 10 -11 10 -5 0
-7 -4 -4 -10z"/>
<path d="M1672 6840 c2 -9 -3 -14 -12 -12 -8 2 -11 0 -7 -4 4 -4 14 -9 21 -10
14 -2 16 20 2 33 -4 4 -6 1 -4 -7z"/>
<path d="M7660 6806 c0 -2 8 -10 18 -17 15 -13 16 -12 3 4 -13 16 -21 21 -21
13z"/>
<path d="M1713 6775 c0 -8 4 -12 9 -9 5 3 6 10 3 15 -9 13 -12 11 -12 -6z"/>
<path d="M7630 6760 c0 -5 5 -10 11 -10 5 0 7 5 4 10 -3 6 -8 10 -11 10 -2 0
-4 -4 -4 -10z"/>
<path d="M1756 6701 c-3 -4 4 -17 17 -27 22 -19 22 -19 4 2 -9 11 -14 24 -10
27 3 4 4 7 0 7 -3 0 -8 -4 -11 -9z"/>
<path d="M7546 6622 c-3 -5 1 -9 9 -9 8 0 12 4 9 9 -3 4 -7 8 -9 8 -2 0 -6 -4
-9 -8z"/>
<path d="M1816 6587 c3 -10 9 -15 12 -12 3 3 0 11 -7 18 -10 9 -11 8 -5 -6z"/>
<path d="M7569 6563 c-13 -16 -12 -17 4 -4 9 7 17 15 17 17 0 8 -8 3 -21 -13z"/>
<path d="M1887 6539 c7 -7 15 -10 18 -7 3 3 -2 9 -12 12 -14 6 -15 5 -6 -5z"/>
<path d="M7549 6523 c-13 -16 -12 -17 4 -4 9 7 17 15 17 17 0 8 -8 3 -21 -13z"/>
<path d="M1953 6503 c4 -3 1 -13 -6 -22 -11 -14 -10 -14 5 -2 16 12 16 31 1
31 -4 0 -3 -3 0 -7z"/>
<path d="M7496 6467 c3 -10 9 -15 12 -12 3 3 0 11 -7 18 -10 9 -11 8 -5 -6z"/>
<path d="M7480 6400 c-9 -6 -10 -10 -3 -10 6 0 15 5 18 10 8 12 4 12 -15 0z"/>
<path d="M2209 6323 c-13 -16 -12 -17 4 -4 9 7 17 15 17 17 0 8 -8 3 -21 -13z"/>
<path d="M7470 6222 c0 -5 7 -9 15 -9 8 0 12 4 9 9 -3 4 -9 8 -15 8 -5 0 -9
-4 -9 -8z"/>
<path d="M7456 6093 c-6 -14 -5 -15 5 -6 7 7 10 15 7 18 -3 3 -9 -2 -12 -12z"/>
<path d="M7473 6047 c0 -8 6 -14 14 -14 9 0 10 4 2 14 -6 7 -12 13 -14 13 -1
0 -2 -6 -2 -13z"/>
<path d="M7490 5976 c0 -2 8 -10 18 -17 15 -13 16 -12 3 4 -13 16 -21 21 -21
13z"/>
<path d="M7496 5862 c-3 -5 1 -9 9 -9 8 0 12 4 9 9 -3 4 -7 8 -9 8 -2 0 -6 -4
-9 -8z"/>
<path d="M7530 5801 c0 -6 4 -13 10 -16 6 -3 7 1 4 9 -7 18 -14 21 -14 7z"/>
<path d="M7556 5698 c3 -5 10 -6 15 -3 13 9 11 12 -6 12 -8 0 -12 -4 -9 -9z"/>
<path d="M3150 5696 c0 -2 8 -10 18 -17 15 -13 16 -12 3 4 -13 16 -21 21 -21
13z"/>
<path d="M7599 5668 c-7 -23 -4 -35 7 -35 9 0 11 4 4 12 -5 7 -7 15 -3 18 3 4
3 7 0 7 -4 0 -7 -1 -8 -2z"/>
<path d="M7653 5567 c0 -8 6 -14 14 -14 9 0 10 4 2 14 -6 7 -12 13 -14 13 -1
0 -2 -6 -2 -13z"/>
<path d="M7679 5513 c-12 -16 -12 -17 2 -6 9 7 20 9 24 5 5 -4 5 -1 1 6 -9 16
-11 15 -27 -5z"/>
<path d="M7704 5478 c-4 -7 -3 -8 5 -4 6 4 20 2 29 -6 15 -12 16 -11 3 5 -16
20 -27 22 -37 5z"/>
<path d="M7750 5421 c0 -6 4 -13 10 -16 6 -3 7 1 4 9 -7 18 -14 21 -14 7z"/>
<path d="M7833 5385 c0 -8 4 -12 9 -9 5 3 6 10 3 15 -9 13 -12 11 -12 -6z"/>
<path d="M7973 5265 c0 -8 4 -12 9 -9 5 3 6 10 3 15 -9 13 -12 11 -12 -6z"/>
<path d="M2810 5099 c0 -5 5 -7 10 -4 6 3 10 8 10 11 0 2 -4 4 -10 4 -5 0 -10
-5 -10 -11z"/>
<path d="M2750 5056 c0 -2 8 -10 18 -17 15 -13 16 -12 3 4 -13 16 -21 21 -21
13z"/>
<path d="M2680 4900 c-9 -6 -10 -10 -3 -10 6 0 15 5 18 10 8 12 4 12 -15 0z"/>
<path d="M2635 4831 c-3 -5 -2 -12 3 -15 5 -3 9 1 9 9 0 17 -3 19 -12 6z"/>
<path d="M2576 4702 c-3 -4 4 -9 15 -9 23 -2 25 3 4 10 -8 4 -16 3 -19 -1z"/>
<path d="M2556 4658 c3 -5 10 -6 15 -3 13 9 11 12 -6 12 -8 0 -12 -4 -9 -9z"/>
<path d="M2550 4636 c0 -2 8 -10 18 -17 15 -13 16 -12 3 4 -13 16 -21 21 -21
13z"/>
<path d="M2510 4521 c0 -6 4 -13 10 -16 6 -3 7 1 4 9 -7 18 -14 21 -14 7z"/>
<path d="M2497 4455 c-4 -8 -3 -16 1 -19 4 -3 9 4 9 15 2 23 -3 25 -10 4z"/>
<path d="M2510 4396 c0 -2 8 -10 18 -17 15 -13 16 -12 3 4 -13 16 -21 21 -21
13z"/>
<path d="M2506 4362 c-3 -5 1 -9 9 -9 8 0 12 4 9 9 -3 4 -7 8 -9 8 -2 0 -6 -4
-9 -8z"/>
<path d="M2513 4087 c-1 -11 -1 -18 0 -16 2 2 8 11 15 20 9 12 9 16 -1 16 -7
0 -14 -9 -14 -20z"/>
<path d="M2476 4078 c3 -5 10 -6 15 -3 13 9 11 12 -6 12 -8 0 -12 -4 -9 -9z"/>
<path d="M2530 4056 c0 -2 8 -10 18 -17 15 -13 16 -12 3 4 -13 16 -21 21 -21
13z"/>
<path d="M2510 4036 c0 -2 8 -10 18 -17 15 -13 16 -12 3 4 -13 16 -21 21 -21
13z"/>
<path d="M2496 3998 c3 -5 10 -6 15 -3 13 9 11 12 -6 12 -8 0 -12 -4 -9 -9z"/>
<path d="M2490 3976 c0 -2 8 -10 18 -17 15 -13 16 -12 3 4 -13 16 -21 21 -21
13z"/>
<path d="M2539 3953 c-12 -16 -12 -17 2 -6 9 7 20 9 24 5 5 -4 5 -1 1 6 -9 16
-11 15 -27 -5z"/>
<path d="M2536 3922 c-3 -5 1 -9 9 -9 8 0 12 4 9 9 -3 4 -7 8 -9 8 -2 0 -6 -4
-9 -8z"/>
<path d="M2575 3809 c-4 -6 -5 -12 -2 -15 2 -3 7 2 10 11 7 17 1 20 -8 4z"/>
<path d="M2590 3796 c0 -2 8 -10 18 -17 15 -13 16 -12 3 4 -13 16 -21 21 -21
13z"/>
<path d="M2590 3761 c0 -6 4 -13 10 -16 6 -3 7 1 4 9 -7 18 -14 21 -14 7z"/>
<path d="M2656 3642 c-3 -5 1 -9 9 -9 8 0 12 4 9 9 -3 4 -7 8 -9 8 -2 0 -6 -4
-9 -8z"/>
<path d="M2670 3586 c0 -2 7 -7 16 -10 8 -3 12 -2 9 4 -6 10 -25 14 -25 6z"/>
<path d="M2815 3450 c-4 -6 -11 -7 -17 -4 -7 4 -8 2 -4 -5 6 -9 11 -9 22 0 14
11 18 19 10 19 -3 0 -8 -5 -11 -10z"/>
<path d="M2816 3381 c-3 -4 6 -7 19 -7 14 0 22 2 19 5 -8 8 -34 10 -38 2z"/>
<path d="M5115 3300 c3 -5 8 -10 11 -10 2 0 4 5 4 10 0 6 -5 10 -11 10 -5 0
-7 -4 -4 -10z"/>
<path d="M5215 3300 c-3 -5 -1 -10 4 -10 6 0 11 5 11 10 0 6 -2 10 -4 10 -3 0
-8 -4 -11 -10z"/>
<path d="M5335 3300 c-3 -5 -1 -10 4 -10 6 0 11 5 11 10 0 6 -2 10 -4 10 -3 0
-8 -4 -11 -10z"/>
<path d="M5410 3305 c0 -7 30 -13 34 -7 3 4 -4 9 -15 9 -10 1 -19 0 -19 -2z"/>
<path d="M5065 3280 c-3 -6 1 -7 9 -4 18 7 21 14 7 14 -6 0 -13 -4 -16 -10z"/>
<path d="M5735 3271 c-3 -5 -2 -12 3 -15 5 -3 9 1 9 9 0 17 -3 19 -12 6z"/>
<path d="M3026 3238 c3 -5 9 -7 12 -4 3 3 12 0 21 -6 13 -10 14 -10 4 2 -15
16 -46 23 -37 8z"/>
<path d="M5956 3193 c-6 -14 -5 -15 5 -6 7 7 10 15 7 18 -3 3 -9 -2 -12 -12z"/>
<path d="M3136 3162 c-3 -4 4 -9 15 -9 23 -2 25 3 4 10 -8 4 -16 3 -19 -1z"/>
<path d="M3416 3038 c3 -4 11 -5 19 -1 21 7 19 12 -4 10 -11 0 -18 -5 -15 -9z"/>
<path d="M6445 3020 c-3 -6 1 -7 9 -4 18 7 21 14 7 14 -6 0 -13 -4 -16 -10z"/>
<path d="M5432 2428 c-35 -38 -41 -71 -41 -230 0 -84 0 -161 0 -171 -1 -15 -8
-13 -42 17 -69 58 -123 79 -216 82 -237 8 -381 -157 -374 -428 6 -253 137
-424 332 -433 103 -5 181 23 257 93 29 27 42 34 43 23 4 -80 54 -128 122 -115
38 6 63 27 75 62 5 15 9 252 8 545 l-1 519 -33 29 c-41 37 -98 40 -130 7z
m-201 -468 c54 -15 114 -85 135 -156 30 -103 10 -236 -46 -307 -46 -58 -154
-83 -219 -51 -149 74 -172 373 -36 481 53 42 99 51 166 33z"/>
<path d="M2590 2412 c-63 -31 -62 -24 -63 -561 0 -267 4 -497 8 -511 20 -65
86 -95 148 -65 60 28 60 34 60 481 0 223 1 403 2 402 2 -3 81 -304 90 -348 2
-8 18 -71 35 -140 18 -69 34 -132 35 -140 20 -85 50 -181 67 -209 27 -42 76
-64 130 -56 54 8 74 22 98 70 17 34 96 326 134 493 2 9 9 37 16 62 7 25 14 55
16 67 2 12 9 34 14 48 5 14 7 25 5 25 -2 0 0 11 5 26 6 14 12 39 15 57 4 17 8
33 11 36 2 2 4 -174 4 -393 0 -320 3 -403 14 -431 32 -76 145 -84 183 -11 15
28 17 85 18 530 0 391 -3 505 -13 526 -21 43 -70 60 -173 60 -97 0 -150 -15
-168 -48 -11 -21 -191 -687 -192 -712 -1 -36 -28 60 -159 559 -41 154 -53 178
-99 191 -61 17 -201 12 -241 -8z"/>
<path d="M5905 2422 c-39 -13 -63 -37 -72 -72 -13 -46 -14 -975 -1 -1011 31
-88 153 -102 205 -22 15 23 18 55 20 212 1 103 2 189 2 192 1 3 70 6 154 7
161 2 170 3 251 26 145 43 224 147 231 304 6 175 -67 297 -210 348 -42 14 -92
18 -305 20 -140 2 -264 0 -275 -4z m442 -182 c80 -26 121 -98 109 -189 -14
-104 -84 -141 -272 -145 -103 -3 -116 -1 -122 15 -9 22 -7 313 1 326 9 14 237
8 284 -7z"/>
<path d="M7837 2395 c-15 -14 -28 -27 -28 -28 -1 -1 -5 -58 -8 -127 -4 -89
-10 -125 -18 -126 -7 -1 -23 -2 -36 -3 -36 -2 -67 -37 -67 -76 0 -42 38 -75
86 -75 l34 0 1 -242 c0 -134 2 -258 4 -275 14 -131 89 -184 256 -178 126 4
189 38 191 105 1 42 -28 71 -73 70 -18 -1 -56 -2 -84 -3 -77 -3 -80 8 -80 288
l0 230 55 6 c80 9 97 16 109 50 22 64 -18 102 -108 104 l-55 1 -2 111 c-2 123
-17 167 -60 183 -45 17 -87 12 -117 -15z"/>
<path d="M4198 2135 c-2 -2 -25 -5 -52 -8 -26 -4 -76 -19 -110 -35 -142 -68
-219 -207 -218 -397 1 -263 153 -422 409 -431 172 -5 320 60 372 165 33 68 15
115 -48 125 -30 4 -42 -2 -109 -59 -122 -103 -227 -118 -320 -47 -40 30 -61
69 -78 140 -11 47 -11 52 4 53 10 0 125 1 257 3 203 1 245 4 271 19 54 28 68
106 38 207 -46 156 -176 253 -351 263 -35 2 -64 3 -65 2z m108 -165 c53 -20
114 -121 114 -187 0 -15 9 -14 -213 -16 l-169 -2 5 36 c19 141 137 217 263
169z"/>
<path d="M7115 2128 c-222 -33 -348 -202 -340 -455 7 -194 106 -336 271 -388
113 -36 289 -22 391 30 53 27 119 100 130 143 24 92 -66 132 -141 62 -64 -59
-82 -73 -121 -91 -148 -66 -279 10 -309 179 -4 26 -2 32 12 33 9 0 123 2 252
3 149 2 245 7 262 14 43 18 66 65 63 126 -11 233 -215 382 -470 344z m155
-163 c53 -28 90 -87 104 -167 4 -21 1 -28 -12 -28 -35 -1 -269 -1 -318 -1
l-52 1 10 42 c14 63 37 106 72 133 57 43 136 51 196 20z"/>
</g>
</svg>
