<?xml version="1.0" encoding="UTF-8" standalone="no"?>
<!DOCTYPE svg PUBLIC "-//W3C//DTD SVG 1.1//EN"
 "http://www.w3.org/Graphics/SVG/1.1/DTD/svg11.dtd">
<!-- Generated by graphviz version 2.40.1 (20161225.0304)
 -->
<!-- Title: dependencies Pages: 1 -->
<svg width="3748pt" height="349pt"
 viewBox="0.00 0.00 3748.00 349.00" xmlns="http://www.w3.org/2000/svg" xmlns:xlink="http://www.w3.org/1999/xlink">
<g id="graph0" class="graph" transform="scale(1 1) rotate(0) translate(4 345)">
<title>dependencies</title>
<polygon fill="#ffffff" stroke="transparent" points="-4,4 -4,-345 3744,-345 3744,4 -4,4"/>
<text text-anchor="start" x="1849.0091" y="-42.4" font-family="sans-serif" font-weight="bold" font-size="14.00" fill="#000000">Legend</text>
<polygon fill="#ffffb3" stroke="transparent" points="1636,-10 1636,-30 1656,-30 1656,-10 1636,-10"/>
<text text-anchor="start" x="1659.629" y="-15.4" font-family="sans-serif" font-size="14.00" fill="#000000"> &#160;Declarations</text>
<polygon fill="#8dd3c7" stroke="transparent" points="1749,-10 1749,-30 1769,-30 1769,-10 1749,-10"/>
<text text-anchor="start" x="1772.7251" y="-15.4" font-family="sans-serif" font-size="14.00" fill="#000000"> &#160;Module</text>
<polygon fill="#80b1d3" stroke="transparent" points="1835,-10 1835,-30 1855,-30 1855,-10 1835,-10"/>
<text text-anchor="start" x="1858.7812" y="-15.4" font-family="sans-serif" font-size="14.00" fill="#000000"> &#160;Bootstrap</text>
<polygon fill="#fdb462" stroke="transparent" points="1932,-10 1932,-30 1952,-30 1952,-10 1932,-10"/>
<text text-anchor="start" x="1955.6732" y="-15.4" font-family="sans-serif" font-size="14.00" fill="#000000"> &#160;Providers</text>
<polygon fill="#fb8072" stroke="transparent" points="2028,-10 2028,-30 2048,-30 2048,-10 2028,-10"/>
<text text-anchor="start" x="2051.7258" y="-15.4" font-family="sans-serif" font-size="14.00" fill="#000000"> &#160;Exports</text>
<g id="clust1" class="cluster">
<title>cluster_AppModule</title>
<polygon fill="none" stroke="#000000" stroke-dasharray="1,5" points="8,-70 8,-333 3732,-333 3732,-70 8,-70"/>
</g>
<g id="clust2" class="cluster">
<title>cluster_AppModule_declarations</title>
<polygon fill="none" stroke="#000000" points="214,-143 214,-195 3724,-195 3724,-143 214,-143"/>
</g>
<g id="clust26" class="cluster">
<title>cluster_AppModule_imports</title>
<polygon fill="none" stroke="#000000" points="28,-143 28,-195 172,-195 172,-143 28,-143"/>
</g>
<g id="clust28" class="cluster">
<title>cluster_AppModule_bootstrap</title>
<polygon fill="none" stroke="#000000" points="1612,-273 1612,-325 1736,-325 1736,-273 1612,-273"/>
</g>
<g id="clust29" class="cluster">
<title>cluster_AppModule_providers</title>
<polygon fill="none" stroke="#000000" points="16,-78 16,-130 488,-130 488,-78 16,-78"/>
</g>
<!-- AppComponent -->
<g id="node1" class="node">
<title>AppComponent</title>
<polygon fill="#ffffb3" stroke="#000000" points="3715.9399,-187 3610.0601,-187 3610.0601,-151 3715.9399,-151 3715.9399,-187"/>
<text text-anchor="middle" x="3663" y="-164.8" font-family="Times,serif" font-size="14.00" fill="#000000">AppComponent</text>
</g>
<!-- AppModule -->
<g id="node24" class="node">
<title>AppModule</title>
<polygon fill="#8dd3c7" stroke="#000000" points="1715.6571,-252 1712.6571,-256 1691.6571,-256 1688.6571,-252 1632.3429,-252 1632.3429,-216 1715.6571,-216 1715.6571,-252"/>
<text text-anchor="middle" x="1674" y="-229.8" font-family="Times,serif" font-size="14.00" fill="#000000">AppModule</text>
</g>
<!-- AppComponent&#45;&gt;AppModule -->
<g id="edge1" class="edge">
<title>AppComponent&#45;&gt;AppModule</title>
<path fill="none" stroke="#000000" d="M3663,-187.3802C3663,-211.2785 3663,-250 3663,-250 3663,-250 1726.002,-250 1726.002,-250"/>
<polygon fill="#000000" stroke="#000000" points="1726.002,-246.5001 1716.002,-250 1726.002,-253.5001 1726.002,-246.5001"/>
</g>
<!-- BannerComponent -->
<g id="node2" class="node">
<title>BannerComponent</title>
<polygon fill="#ffffb3" stroke="#000000" points="3591.759,-187 3470.241,-187 3470.241,-151 3591.759,-151 3591.759,-187"/>
<text text-anchor="middle" x="3531" y="-164.8" font-family="Times,serif" font-size="14.00" fill="#000000">BannerComponent</text>
</g>
<!-- BannerComponent&#45;&gt;AppModule -->
<g id="edge2" class="edge">
<title>BannerComponent&#45;&gt;AppModule</title>
<path fill="none" stroke="#000000" d="M3531,-187.0908C3531,-210.1328 3531,-247 3531,-247 3531,-247 1725.8313,-247 1725.8313,-247"/>
<polygon fill="#000000" stroke="#000000" points="1725.8314,-243.5001 1715.8313,-247 1725.8313,-250.5001 1725.8314,-243.5001"/>
</g>
<!-- CalendarComponent -->
<g id="node3" class="node">
<title>CalendarComponent</title>
<polygon fill="#ffffb3" stroke="#000000" points="3451.8641,-187 3320.1359,-187 3320.1359,-151 3451.8641,-151 3451.8641,-187"/>
<text text-anchor="middle" x="3386" y="-164.8" font-family="Times,serif" font-size="14.00" fill="#000000">CalendarComponent</text>
</g>
<!-- CalendarComponent&#45;&gt;AppModule -->
<g id="edge3" class="edge">
<title>CalendarComponent&#45;&gt;AppModule</title>
<path fill="none" stroke="#000000" d="M3386,-187.0109C3386,-209.4852 3386,-245 3386,-245 3386,-245 1725.8942,-245 1725.8942,-245"/>
<polygon fill="#000000" stroke="#000000" points="1725.8942,-241.5001 1715.8942,-245 1725.8942,-248.5001 1725.8942,-241.5001"/>
</g>
<!-- CalendarioComponent -->
<g id="node4" class="node">
<title>CalendarioComponent</title>
<polygon fill="#ffffb3" stroke="#000000" points="3302.2548,-187 3159.7452,-187 3159.7452,-151 3302.2548,-151 3302.2548,-187"/>
<text text-anchor="middle" x="3231" y="-164.8" font-family="Times,serif" font-size="14.00" fill="#000000">CalendarioComponent</text>
</g>
<!-- CalendarioComponent&#45;&gt;AppModule -->
<g id="edge4" class="edge">
<title>CalendarioComponent&#45;&gt;AppModule</title>
<path fill="none" stroke="#000000" d="M3231,-187.0449C3231,-208.6623 3231,-242 3231,-242 3231,-242 1726.0488,-242 1726.0488,-242"/>
<polygon fill="#000000" stroke="#000000" points="1726.0489,-238.5001 1716.0488,-242 1726.0488,-245.5001 1726.0489,-238.5001"/>
</g>
<!-- CeloComponent -->
<g id="node5" class="node">
<title>CeloComponent</title>
<polygon fill="#ffffb3" stroke="#000000" points="3141.7744,-187 3034.2256,-187 3034.2256,-151 3141.7744,-151 3141.7744,-187"/>
<text text-anchor="middle" x="3088" y="-164.8" font-family="Times,serif" font-size="14.00" fill="#000000">CeloComponent</text>
</g>
<!-- CeloComponent&#45;&gt;AppModule -->
<g id="edge5" class="edge">
<title>CeloComponent&#45;&gt;AppModule</title>
<path fill="none" stroke="#000000" d="M3088,-187.2843C3088,-208.3211 3088,-240 3088,-240 3088,-240 1725.9346,-240 1725.9346,-240"/>
<polygon fill="#000000" stroke="#000000" points="1725.9346,-236.5001 1715.9346,-240 1725.9345,-243.5001 1725.9346,-236.5001"/>
</g>
<!-- ConsultaComponent -->
<g id="node6" class="node">
<title>ConsultaComponent</title>
<polygon fill="#ffffb3" stroke="#000000" points="3016.6094,-187 2885.3906,-187 2885.3906,-151 3016.6094,-151 3016.6094,-187"/>
<text text-anchor="middle" x="2951" y="-164.8" font-family="Times,serif" font-size="14.00" fill="#000000">ConsultaComponent</text>
</g>
<!-- ConsultaComponent&#45;&gt;AppModule -->
<g id="edge6" class="edge">
<title>ConsultaComponent&#45;&gt;AppModule</title>
<path fill="none" stroke="#000000" d="M2951,-187.2228C2951,-207.3652 2951,-237 2951,-237 2951,-237 1725.7621,-237 1725.7621,-237"/>
<polygon fill="#000000" stroke="#000000" points="1725.7621,-233.5001 1715.7621,-237 1725.762,-240.5001 1725.7621,-233.5001"/>
</g>
<!-- DesparasitacionComponent -->
<g id="node7" class="node">
<title>DesparasitacionComponent</title>
<polygon fill="#ffffb3" stroke="#000000" points="2867.2338,-187 2696.7662,-187 2696.7662,-151 2867.2338,-151 2867.2338,-187"/>
<text text-anchor="middle" x="2782" y="-164.8" font-family="Times,serif" font-size="14.00" fill="#000000">DesparasitacionComponent</text>
</g>
<!-- DesparasitacionComponent&#45;&gt;AppModule -->
<g id="edge7" class="edge">
<title>DesparasitacionComponent&#45;&gt;AppModule</title>
<path fill="none" stroke="#000000" d="M2782,-187.1061C2782,-206.3391 2782,-234 2782,-234 2782,-234 1725.7467,-234 1725.7467,-234"/>
<polygon fill="#000000" stroke="#000000" points="1725.7467,-230.5001 1715.7467,-234 1725.7467,-237.5001 1725.7467,-230.5001"/>
</g>
<!-- DetallesMascotaComponent -->
<g id="node8" class="node">
<title>DetallesMascotaComponent</title>
<polygon fill="#ffffb3" stroke="#000000" points="2678.1232,-187 2503.8768,-187 2503.8768,-151 2678.1232,-151 2678.1232,-187"/>
<text text-anchor="middle" x="2591" y="-164.8" font-family="Times,serif" font-size="14.00" fill="#000000">DetallesMascotaComponent</text>
</g>
<!-- DetallesMascotaComponent&#45;&gt;AppModule -->
<g id="edge8" class="edge">
<title>DetallesMascotaComponent&#45;&gt;AppModule</title>
<path fill="none" stroke="#000000" d="M2591,-187.2222C2591,-205.8285 2591,-232 2591,-232 2591,-232 1725.7844,-232 1725.7844,-232"/>
<polygon fill="#000000" stroke="#000000" points="1725.7845,-228.5001 1715.7844,-232 1725.7844,-235.5001 1725.7845,-228.5001"/>
</g>
<!-- DropZoneDirective -->
<g id="node9" class="node">
<title>DropZoneDirective</title>
<polygon fill="#ffffb3" stroke="#000000" points="2485.6178,-187 2360.3822,-187 2360.3822,-151 2485.6178,-151 2485.6178,-187"/>
<text text-anchor="middle" x="2423" y="-164.8" font-family="Times,serif" font-size="14.00" fill="#000000">DropZoneDirective</text>
</g>
<!-- DropZoneDirective&#45;&gt;AppModule -->
<g id="edge9" class="edge">
<title>DropZoneDirective&#45;&gt;AppModule</title>
<path fill="none" stroke="#000000" d="M2423,-187.002C2423,-204.6754 2423,-229 2423,-229 2423,-229 1725.8744,-229 1725.8744,-229"/>
<polygon fill="#000000" stroke="#000000" points="1725.8745,-225.5001 1715.8744,-229 1725.8744,-232.5001 1725.8745,-225.5001"/>
</g>
<!-- EscogerMascotaComponent -->
<g id="node10" class="node">
<title>EscogerMascotaComponent</title>
<polygon fill="#ffffb3" stroke="#000000" points="2341.8431,-187 2168.1569,-187 2168.1569,-151 2341.8431,-151 2341.8431,-187"/>
<text text-anchor="middle" x="2255" y="-164.8" font-family="Times,serif" font-size="14.00" fill="#000000">EscogerMascotaComponent</text>
</g>
<!-- EscogerMascotaComponent&#45;&gt;AppModule -->
<g id="edge10" class="edge">
<title>EscogerMascotaComponent&#45;&gt;AppModule</title>
<path fill="none" stroke="#000000" d="M2255,-187.0336C2255,-204.0597 2255,-227 2255,-227 2255,-227 1725.7841,-227 1725.7841,-227"/>
<polygon fill="#000000" stroke="#000000" points="1725.7841,-223.5001 1715.7841,-227 1725.7841,-230.5001 1725.7841,-223.5001"/>
</g>
<!-- FichaRegistroComponent -->
<g id="node11" class="node">
<title>FichaRegistroComponent</title>
<polygon fill="#ffffb3" stroke="#000000" points="2149.8725,-187 1990.1275,-187 1990.1275,-151 2149.8725,-151 2149.8725,-187"/>
<text text-anchor="middle" x="2070" y="-164.8" font-family="Times,serif" font-size="14.00" fill="#000000">FichaRegistroComponent</text>
</g>
<!-- FichaRegistroComponent&#45;&gt;AppModule -->
<g id="edge11" class="edge">
<title>FichaRegistroComponent&#45;&gt;AppModule</title>
<path fill="none" stroke="#000000" d="M2070,-187.0091C2070,-203.0494 2070,-224 2070,-224 2070,-224 1726.004,-224 1726.004,-224"/>
<polygon fill="#000000" stroke="#000000" points="1726.0041,-220.5001 1716.004,-224 1726.004,-227.5001 1726.0041,-220.5001"/>
</g>
<!-- FileSizePipe -->
<g id="node12" class="node">
<title>FileSizePipe</title>
<polygon fill="#ffffb3" stroke="#000000" points="1972.2689,-187 1885.7311,-187 1885.7311,-151 1972.2689,-151 1972.2689,-187"/>
<text text-anchor="middle" x="1929" y="-164.8" font-family="Times,serif" font-size="14.00" fill="#000000">FileSizePipe</text>
</g>
<!-- FileSizePipe&#45;&gt;AppModule -->
<g id="edge12" class="edge">
<title>FileSizePipe&#45;&gt;AppModule</title>
<path fill="none" stroke="#000000" d="M1929,-187.2396C1929,-202.5706 1929,-222 1929,-222 1929,-222 1725.8225,-222 1725.8225,-222"/>
<polygon fill="#000000" stroke="#000000" points="1725.8226,-218.5001 1715.8225,-222 1725.8225,-225.5001 1725.8226,-218.5001"/>
</g>
<!-- FooterComponent -->
<g id="node13" class="node">
<title>FooterComponent</title>
<polygon fill="#ffffb3" stroke="#000000" points="1867.8809,-187 1750.1191,-187 1750.1191,-151 1867.8809,-151 1867.8809,-187"/>
<text text-anchor="middle" x="1809" y="-164.8" font-family="Times,serif" font-size="14.00" fill="#000000">FooterComponent</text>
</g>
<!-- FooterComponent&#45;&gt;AppModule -->
<g id="edge13" class="edge">
<title>FooterComponent&#45;&gt;AppModule</title>
<path fill="none" stroke="#000000" d="M1809,-187.0511C1809,-201.373 1809,-219 1809,-219 1809,-219 1725.9748,-219 1725.9748,-219"/>
<polygon fill="#000000" stroke="#000000" points="1725.9749,-215.5001 1715.9748,-219 1725.9748,-222.5001 1725.9749,-215.5001"/>
</g>
<!-- HomeComponent -->
<g id="node14" class="node">
<title>HomeComponent</title>
<polygon fill="#ffffb3" stroke="#000000" points="1731.5451,-187 1616.4549,-187 1616.4549,-151 1731.5451,-151 1731.5451,-187"/>
<text text-anchor="middle" x="1674" y="-164.8" font-family="Times,serif" font-size="14.00" fill="#000000">HomeComponent</text>
</g>
<!-- HomeComponent&#45;&gt;AppModule -->
<g id="edge14" class="edge">
<title>HomeComponent&#45;&gt;AppModule</title>
<path fill="none" stroke="#000000" d="M1674,-187.1061C1674,-187.1061 1674,-205.991 1674,-205.991"/>
<polygon fill="#000000" stroke="#000000" points="1670.5001,-205.9909 1674,-215.991 1677.5001,-205.991 1670.5001,-205.9909"/>
</g>
<!-- InicioComponent -->
<g id="node15" class="node">
<title>InicioComponent</title>
<polygon fill="#ffffb3" stroke="#000000" points="1597.9888,-187 1484.0112,-187 1484.0112,-151 1597.9888,-151 1597.9888,-187"/>
<text text-anchor="middle" x="1541" y="-164.8" font-family="Times,serif" font-size="14.00" fill="#000000">InicioComponent</text>
</g>
<!-- InicioComponent&#45;&gt;AppModule -->
<g id="edge15" class="edge">
<title>InicioComponent&#45;&gt;AppModule</title>
<path fill="none" stroke="#000000" d="M1541,-187.0511C1541,-201.373 1541,-219 1541,-219 1541,-219 1622.2829,-219 1622.2829,-219"/>
<polygon fill="#000000" stroke="#000000" points="1622.2829,-222.5001 1632.2829,-219 1622.2828,-215.5001 1622.2829,-222.5001"/>
</g>
<!-- LoginComponent -->
<g id="node16" class="node">
<title>LoginComponent</title>
<polygon fill="#ffffb3" stroke="#000000" points="1466.2758,-187 1351.7242,-187 1351.7242,-151 1466.2758,-151 1466.2758,-187"/>
<text text-anchor="middle" x="1409" y="-164.8" font-family="Times,serif" font-size="14.00" fill="#000000">LoginComponent</text>
</g>
<!-- LoginComponent&#45;&gt;AppModule -->
<g id="edge16" class="edge">
<title>LoginComponent&#45;&gt;AppModule</title>
<path fill="none" stroke="#000000" d="M1409,-187.2396C1409,-202.5706 1409,-222 1409,-222 1409,-222 1622.3022,-222 1622.3022,-222"/>
<polygon fill="#000000" stroke="#000000" points="1622.3023,-225.5001 1632.3022,-222 1622.3022,-218.5001 1622.3023,-225.5001"/>
</g>
<!-- NavbarComponent -->
<g id="node17" class="node">
<title>NavbarComponent</title>
<polygon fill="#ffffb3" stroke="#000000" points="1333.0297,-187 1210.9703,-187 1210.9703,-151 1333.0297,-151 1333.0297,-187"/>
<text text-anchor="middle" x="1272" y="-164.8" font-family="Times,serif" font-size="14.00" fill="#000000">NavbarComponent</text>
</g>
<!-- NavbarComponent&#45;&gt;AppModule -->
<g id="edge17" class="edge">
<title>NavbarComponent&#45;&gt;AppModule</title>
<path fill="none" stroke="#000000" d="M1272,-187.0091C1272,-203.0494 1272,-224 1272,-224 1272,-224 1622.1166,-224 1622.1166,-224"/>
<polygon fill="#000000" stroke="#000000" points="1622.1166,-227.5001 1632.1166,-224 1622.1166,-220.5001 1622.1166,-227.5001"/>
</g>
<!-- ObservacionComponent -->
<g id="node18" class="node">
<title>ObservacionComponent</title>
<polygon fill="#ffffb3" stroke="#000000" points="1193.0786,-187 1040.9214,-187 1040.9214,-151 1193.0786,-151 1193.0786,-187"/>
<text text-anchor="middle" x="1117" y="-164.8" font-family="Times,serif" font-size="14.00" fill="#000000">ObservacionComponent</text>
</g>
<!-- ObservacionComponent&#45;&gt;AppModule -->
<g id="edge18" class="edge">
<title>ObservacionComponent&#45;&gt;AppModule</title>
<path fill="none" stroke="#000000" d="M1117,-187.0336C1117,-204.0597 1117,-227 1117,-227 1117,-227 1622.1345,-227 1622.1345,-227"/>
<polygon fill="#000000" stroke="#000000" points="1622.1345,-230.5001 1632.1345,-227 1622.1344,-223.5001 1622.1345,-230.5001"/>
</g>
<!-- OlvidePassComponent -->
<g id="node19" class="node">
<title>OlvidePassComponent</title>
<polygon fill="#ffffb3" stroke="#000000" points="1023.3216,-187 878.6784,-187 878.6784,-151 1023.3216,-151 1023.3216,-187"/>
<text text-anchor="middle" x="951" y="-164.8" font-family="Times,serif" font-size="14.00" fill="#000000">OlvidePassComponent</text>
</g>
<!-- OlvidePassComponent&#45;&gt;AppModule -->
<g id="edge19" class="edge">
<title>OlvidePassComponent&#45;&gt;AppModule</title>
<path fill="none" stroke="#000000" d="M951,-187.002C951,-204.6754 951,-229 951,-229 951,-229 1622.2679,-229 1622.2679,-229"/>
<polygon fill="#000000" stroke="#000000" points="1622.2679,-232.5001 1632.2679,-229 1622.2678,-225.5001 1622.2679,-232.5001"/>
</g>
<!-- ProximasComponent -->
<g id="node20" class="node">
<title>ProximasComponent</title>
<polygon fill="#ffffb3" stroke="#000000" points="861.2162,-187 726.7838,-187 726.7838,-151 861.2162,-151 861.2162,-187"/>
<text text-anchor="middle" x="794" y="-164.8" font-family="Times,serif" font-size="14.00" fill="#000000">ProximasComponent</text>
</g>
<!-- ProximasComponent&#45;&gt;AppModule -->
<g id="edge20" class="edge">
<title>ProximasComponent&#45;&gt;AppModule</title>
<path fill="none" stroke="#000000" d="M794,-187.2222C794,-205.8285 794,-232 794,-232 794,-232 1622.1478,-232 1622.1478,-232"/>
<polygon fill="#000000" stroke="#000000" points="1622.1478,-235.5001 1632.1478,-232 1622.1477,-228.5001 1622.1478,-235.5001"/>
</g>
<!-- ReiniciaPassComponent -->
<g id="node21" class="node">
<title>ReiniciaPassComponent</title>
<polygon fill="#ffffb3" stroke="#000000" points="708.3711,-187 555.6289,-187 555.6289,-151 708.3711,-151 708.3711,-187"/>
<text text-anchor="middle" x="632" y="-164.8" font-family="Times,serif" font-size="14.00" fill="#000000">ReiniciaPassComponent</text>
</g>
<!-- ReiniciaPassComponent&#45;&gt;AppModule -->
<g id="edge21" class="edge">
<title>ReiniciaPassComponent&#45;&gt;AppModule</title>
<path fill="none" stroke="#000000" d="M632,-187.1061C632,-206.3391 632,-234 632,-234 632,-234 1622.1861,-234 1622.1861,-234"/>
<polygon fill="#000000" stroke="#000000" points="1622.1862,-237.5001 1632.1861,-234 1622.1861,-230.5001 1622.1862,-237.5001"/>
</g>
<!-- TablaCategoriasComponent -->
<g id="node22" class="node">
<title>TablaCategoriasComponent</title>
<polygon fill="#ffffb3" stroke="#000000" points="537.5716,-187 364.4284,-187 364.4284,-151 537.5716,-151 537.5716,-187"/>
<text text-anchor="middle" x="451" y="-164.8" font-family="Times,serif" font-size="14.00" fill="#000000">TablaCategoriasComponent</text>
</g>
<!-- TablaCategoriasComponent&#45;&gt;AppModule -->
<g id="edge22" class="edge">
<title>TablaCategoriasComponent&#45;&gt;AppModule</title>
<path fill="none" stroke="#000000" d="M451,-187.2228C451,-207.3652 451,-237 451,-237 451,-237 1622.2554,-237 1622.2554,-237"/>
<polygon fill="#000000" stroke="#000000" points="1622.2554,-240.5001 1632.2554,-237 1622.2553,-233.5001 1622.2554,-240.5001"/>
</g>
<!-- VacunaComponent -->
<g id="node23" class="node">
<title>VacunaComponent</title>
<polygon fill="#ffffb3" stroke="#000000" points="346.0828,-187 221.9172,-187 221.9172,-151 346.0828,-151 346.0828,-187"/>
<text text-anchor="middle" x="284" y="-164.8" font-family="Times,serif" font-size="14.00" fill="#000000">VacunaComponent</text>
</g>
<!-- VacunaComponent&#45;&gt;AppModule -->
<g id="edge23" class="edge">
<title>VacunaComponent&#45;&gt;AppModule</title>
<path fill="none" stroke="#000000" d="M284,-187.0449C284,-208.6623 284,-242 284,-242 284,-242 1622.0214,-242 1622.0214,-242"/>
<polygon fill="#000000" stroke="#000000" points="1622.0214,-245.5001 1632.0214,-242 1622.0213,-238.5001 1622.0214,-245.5001"/>
</g>
<!-- AppComponent  -->
<g id="node26" class="node">
<title>AppComponent </title>
<polygon fill="#80b1d3" stroke="#000000" points="1728.439,-317 1619.561,-317 1619.561,-281 1728.439,-281 1728.439,-317"/>
<text text-anchor="middle" x="1674" y="-294.8" font-family="Times,serif" font-size="14.00" fill="#000000">AppComponent </text>
</g>
<!-- AppModule&#45;&gt;AppComponent  -->
<g id="edge25" class="edge">
<title>AppModule&#45;&gt;AppComponent </title>
<path fill="none" stroke="#000000" stroke-dasharray="1,5" d="M1674,-252.1061C1674,-252.1061 1674,-270.991 1674,-270.991"/>
<polygon fill="#000000" stroke="#000000" points="1670.5001,-270.9909 1674,-280.991 1677.5001,-270.991 1670.5001,-270.9909"/>
</g>
<!-- AppRoutingModule -->
<g id="node25" class="node">
<title>AppRoutingModule</title>
<polygon fill="#8dd3c7" stroke="#000000" points="164.2744,-187 161.2744,-191 140.2744,-191 137.2744,-187 35.7256,-187 35.7256,-151 164.2744,-151 164.2744,-187"/>
<text text-anchor="middle" x="100" y="-164.8" font-family="Times,serif" font-size="14.00" fill="#000000">AppRoutingModule</text>
</g>
<!-- AppRoutingModule&#45;&gt;AppModule -->
<g id="edge24" class="edge">
<title>AppRoutingModule&#45;&gt;AppModule</title>
<path fill="none" stroke="#000000" d="M100,-187.0908C100,-210.1328 100,-247 100,-247 100,-247 1622.3047,-247 1622.3047,-247"/>
<polygon fill="#000000" stroke="#000000" points="1622.3048,-250.5001 1632.3047,-247 1622.3047,-243.5001 1622.3048,-250.5001"/>
</g>
<!-- AuthService -->
<g id="node27" class="node">
<title>AuthService</title>
<ellipse fill="#fdb462" stroke="#000000" cx="83" cy="-104" rx="59.1083" ry="18"/>
<text text-anchor="middle" x="83" y="-99.8" font-family="Times,serif" font-size="14.00" fill="#000000">AuthService</text>
</g>
<!-- AuthService&#45;&gt;AppModule -->
<g id="edge26" class="edge">
<title>AuthService&#45;&gt;AppModule</title>
<path fill="none" stroke="#000000" d="M29.6545,-112.2679C29.6545,-143.1533 29.6545,-250 29.6545,-250 29.6545,-250 1622.1166,-250 1622.1166,-250"/>
<polygon fill="#000000" stroke="#000000" points="1622.1166,-253.5001 1632.1166,-250 1622.1165,-246.5001 1622.1166,-253.5001"/>
</g>
<!-- AuthService&#45;&gt;AppRoutingModule -->
<g id="edge29" class="edge">
<title>AuthService&#45;&gt;AppRoutingModule</title>
<path fill="none" stroke="#000000" d="M88.9584,-122.1061C88.9584,-122.1061 88.9584,-140.991 88.9584,-140.991"/>
<polygon fill="#000000" stroke="#000000" points="85.4585,-140.9909 88.9584,-150.991 92.4585,-140.991 85.4585,-140.9909"/>
</g>
<!-- MascotasService -->
<g id="node28" class="node">
<title>MascotasService</title>
<ellipse fill="#fdb462" stroke="#000000" cx="237" cy="-104" rx="76.4188" ry="18"/>
<text text-anchor="middle" x="237" y="-99.8" font-family="Times,serif" font-size="14.00" fill="#000000">MascotasService</text>
</g>
<!-- MascotasService&#45;&gt;AppModule -->
<g id="edge27" class="edge">
<title>MascotasService&#45;&gt;AppModule</title>
<path fill="none" stroke="#000000" d="M193.1728,-118.823C193.1728,-155.0242 193.1728,-245 193.1728,-245 193.1728,-245 1622.0671,-245 1622.0671,-245"/>
<polygon fill="#000000" stroke="#000000" points="1622.0671,-248.5001 1632.0671,-245 1622.067,-241.5001 1622.0671,-248.5001"/>
</g>
<!-- UsuariosService -->
<g id="node29" class="node">
<title>UsuariosService</title>
<ellipse fill="#fdb462" stroke="#000000" cx="406" cy="-104" rx="74.1335" ry="18"/>
<text text-anchor="middle" x="406" y="-99.8" font-family="Times,serif" font-size="14.00" fill="#000000">UsuariosService</text>
</g>
<!-- UsuariosService&#45;&gt;AppModule -->
<g id="edge28" class="edge">
<title>UsuariosService&#45;&gt;AppModule</title>
<path fill="none" stroke="#000000" d="M355.2528,-117.5374C355.2528,-151.937 355.2528,-240 355.2528,-240 355.2528,-240 1621.9862,-240 1621.9862,-240"/>
<polygon fill="#000000" stroke="#000000" points="1621.9863,-243.5001 1631.9862,-240 1621.9862,-236.5001 1621.9863,-243.5001"/>
</g>
</g>
</svg>
